<svg width="21" height="21" viewBox="0 0 21 21" fill="none" xmlns="http://www.w3.org/2000/svg">
<path fill-rule="evenodd" clip-rule="evenodd" d="M12.3392 2.22739C11.8901 1.77828 11.162 1.77828 10.7129 2.22739C10.2638 2.67649 10.2638 3.40463 10.7129 3.85373L15.8208 8.96163L1.62654 8.96163C0.991408 8.96163 0.476535 9.4765 0.476536 10.1116C0.476536 10.7468 0.991408 11.2616 1.62654 11.2616H15.8208L10.7129 16.3695C10.2638 16.8186 10.2638 17.5468 10.7129 17.9959C11.162 18.445 11.8901 18.445 12.3392 17.9959L19.4097 10.9253L19.4103 10.9248C19.4111 10.924 19.4119 10.9232 19.4127 10.9224C19.6348 10.699 19.7462 10.4072 19.7471 10.1151C19.7471 10.1128 19.7471 10.1105 19.7471 10.1082C19.7466 9.95351 19.7156 9.80602 19.6598 9.67143C19.6037 9.53579 19.5205 9.40871 19.4103 9.29845L12.3392 2.22739Z" fill="#333333"/>
</svg>
