<svg width="143" height="97" viewBox="0 0 143 97" fill="none" xmlns="http://www.w3.org/2000/svg">
<path d="M71.585 36.6309V63.9535C79.3066 60.3898 88.2161 55.6381 95.3438 51.4803C90.592 43.1648 84.6523 37.8191 71.585 36.6309Z" fill="#FFED00"/>
<path d="M55.2571 40.8461C54.7384 41.2126 54.6151 41.9302 54.9816 42.4489C55.3481 42.9676 56.0657 43.091 56.5844 42.7245L55.2571 40.8461ZM69.5251 36.8878L69.6124 38.0345L69.5251 36.8878ZM83.714 39.67L84.2279 38.6412L83.714 39.67ZM94.4614 49.3425L93.4922 49.9616L94.4614 49.3425ZM98.7179 63.1609L97.5684 63.1945L98.7179 63.1609ZM95.2758 77.2043L94.2721 76.6429L94.2721 76.6429L95.2758 77.2043ZM71.1095 91.0942L71.0894 92.244L71.1095 91.0942ZM57.85 86.0233C57.3107 85.6878 56.6016 85.8528 56.266 86.3921C55.9304 86.9313 56.0955 87.6405 56.6347 87.9761L57.85 86.0233ZM56.5844 42.7245C60.4232 40.012 64.9256 38.3912 69.6124 38.0345L69.4379 35.7411C64.3364 36.1294 59.4356 37.8936 55.2571 40.8461L56.5844 42.7245ZM69.6124 38.0345C74.2992 37.6778 78.9951 38.5986 83.2001 40.6988L84.2279 38.6412C79.6507 36.3551 74.5394 35.3528 69.4379 35.7411L69.6124 38.0345ZM83.2001 40.6988C87.4052 42.7991 90.9621 46.0003 93.4922 49.9616L95.4306 48.7235C92.6766 44.4117 88.805 40.9273 84.2279 38.6412L83.2001 40.6988ZM93.4922 49.9616C96.0224 53.9229 97.4311 58.4961 97.5684 63.1945L99.8674 63.1273C99.7179 58.0132 98.1846 53.0353 95.4306 48.7235L93.4922 49.9616ZM97.5684 63.1945C97.7057 67.8929 96.5665 72.5406 94.2721 76.6429L96.2794 77.7656C98.7769 73.3003 100.017 68.2414 99.8674 63.1273L97.5684 63.1945ZM94.2721 76.6429C91.9776 80.7452 88.6138 84.1487 84.5386 86.491L85.6847 88.485C90.1205 85.9355 93.782 82.2309 96.2794 77.7656L94.2721 76.6429ZM84.5386 86.491C80.4634 88.8332 75.8293 90.0267 71.1297 89.9444L71.0894 92.244C76.2049 92.3337 81.2489 91.0346 85.6847 88.485L84.5386 86.491ZM71.1297 89.9444C66.43 89.8621 61.8406 88.507 57.85 86.0233L56.6347 87.9761C60.9784 90.6794 65.9739 92.1544 71.0894 92.244L71.1297 89.9444Z" fill="#333333"/>
<path d="M53.0233 36.6132C52.4979 36.97 52.3611 37.6851 52.7178 38.2106C53.0746 38.7361 53.7898 38.8728 54.3152 38.5161L53.0233 36.6132ZM69.665 32.1155L69.7342 33.2635L69.665 32.1155ZM86.1996 35.6028L85.6727 36.625L86.1996 35.6028ZM98.6322 47.0477L99.6074 46.4381L99.6074 46.4381L98.6322 47.0477ZM103.473 63.2378L104.623 63.212L103.473 63.2378ZM87.4576 91.6203L86.8853 90.6228L87.4576 91.6203ZM71.0962 95.8463L71.0786 96.9962L71.0962 95.8463ZM55.4746 90.1413C54.9336 89.8085 54.2253 89.9773 53.8925 90.5182C53.5597 91.0592 53.7285 91.7675 54.2694 92.1003L55.4746 90.1413ZM54.3152 38.5161C58.8892 35.4108 64.2158 33.5963 69.7342 33.2635L69.5957 30.9676C63.6645 31.3253 57.9395 33.2756 53.0233 36.6132L54.3152 38.5161ZM69.7342 33.2635C75.2526 32.9307 80.7587 34.0919 85.6727 36.625L86.7265 34.5806C81.4449 31.8581 75.527 30.6099 69.5957 30.9676L69.7342 33.2635ZM85.6727 36.625C90.5867 39.1581 94.7267 42.9693 97.657 47.6572L99.6074 46.4381C96.4579 41.3995 92.0081 37.3032 86.7265 34.5806L85.6727 36.625ZM97.657 47.6572C100.587 52.3452 102.199 57.7365 102.324 63.2636L104.623 63.212C104.49 57.2715 102.757 51.4768 99.6074 46.4381L97.657 47.6572ZM102.324 63.2636C102.448 68.7907 101.079 74.2489 98.3623 79.0637L100.365 80.194C103.286 75.0191 104.756 69.1525 104.623 63.212L102.324 63.2636ZM98.3623 79.0637C95.6454 83.8785 91.6806 87.8717 86.8853 90.6228L88.0299 92.6178C93.1839 89.6609 97.4453 85.369 100.365 80.194L98.3623 79.0637ZM86.8853 90.6228C82.09 93.3739 76.6416 94.7812 71.1138 94.6965L71.0786 96.9962C77.0199 97.0873 82.8758 95.5747 88.0299 92.6178L86.8853 90.6228ZM71.1138 94.6965C65.586 94.6117 60.1833 93.0381 55.4746 90.1413L54.2694 92.1003C59.3304 95.2138 65.1372 96.9051 71.0786 96.9962L71.1138 94.6965Z" fill="#333333"/>
<circle cx="71.585" cy="63.9538" r="2.37588" fill="#333333"/>
<path d="M76.8452 62.0894L91.7799 53.2623" stroke="#333333" stroke-width="2.3" stroke-linecap="round"/>
<path d="M71.4065 59.0239L71.4063 50.7427" stroke="#333333" stroke-width="2.3" stroke-linecap="round"/>
<line x1="71.6229" y1="43.7968" x2="71.6229" y2="41.345" stroke="#333333" stroke-width="2.3" stroke-linecap="round"/>
<line x1="71.6229" y1="86.5626" x2="71.6229" y2="84.1109" stroke="#333333" stroke-width="2.3" stroke-linecap="round"/>
<line x1="1.15" y1="-1.15" x2="3.60176" y2="-1.15" transform="matrix(-1 0 0 1 95.3438 65.1417)" stroke="#333333" stroke-width="2.3" stroke-linecap="round"/>
<line x1="90.1852" y1="74.9642" x2="88.5351" y2="73.8641" stroke="#333333" stroke-width="2.3" stroke-linecap="round"/>
<line x1="60.1124" y1="45.2657" x2="61.2124" y2="46.9158" stroke="#333333" stroke-width="2.3" stroke-linecap="round"/>
<line x1="1.15" y1="-1.15" x2="3.13318" y2="-1.15" transform="matrix(0.5547 -0.83205 -0.83205 -0.5547 58.5176 82.9608)" stroke="#333333" stroke-width="2.3" stroke-linecap="round"/>
<line x1="83.0575" y1="82.6419" x2="81.9575" y2="80.9918" stroke="#333333" stroke-width="2.3" stroke-linecap="round"/>
<line x1="1.15" y1="-1.15" x2="3.13318" y2="-1.15" transform="matrix(-0.5547 0.83205 0.83205 0.5547 85.8402 44.9468)" stroke="#333333" stroke-width="2.3" stroke-linecap="round"/>
<rect x="69.1711" y="27.0897" width="4.82764" height="4.82764" stroke="#333333" stroke-width="2.3"/>
<mask id="path-16-inside-1" fill="white">
<rect x="63.2694" y="21.188" width="16.6312" height="7.12764" rx="1.5"/>
</mask>
<rect x="63.2694" y="21.188" width="16.6312" height="7.12764" rx="1.5" stroke="#333333" stroke-width="4.6" mask="url(#path-16-inside-1)"/>
<path d="M60.8935 51.4805H30.007" stroke="#FFED00" stroke-width="2.3" stroke-linecap="round"/>
<path d="M59.7055 76.4272H30.007" stroke="#FFED00" stroke-width="2.3" stroke-linecap="round"/>
<path d="M57.3296 59.796H20.5035" stroke="#FFED00" stroke-width="2.3" stroke-linecap="round"/>
<path d="M64.4573 68.1117H11" stroke="#FFED00" stroke-width="2.3" stroke-linecap="round"/>
<path d="M50.202 84.1488H37.1346" stroke="#FFED00" stroke-width="2.3" stroke-linecap="round"/>
<path d="M50.202 44.9468H38.3226" stroke="#FFED00" stroke-width="2.3" stroke-linecap="round"/>
<path d="M128.869 38.9838L129.706 36.557H131.155V40.2552H130V38.2045L129.255 40.2552H128.489L127.785 38.3138V40.2552H126.63V36.557H128.045L128.869 38.9838ZM134.078 36.557H135.233V40.2552H134.078V38.1019L133.063 40.2552H131.904V36.557H133.063V38.7035L134.078 36.557ZM139.143 40.2552H137.988V38.8846H136.98V40.2552H135.828V36.557H136.98V37.9994H137.988V36.557H139.143V40.2552Z" fill="#333333"/>
<path d="M105.884 38H102.583V27.4922L99.3407 28.4395V25.9395L105.581 23.7812H105.884V38ZM120.044 32.1895C120.044 34.11 119.611 35.5911 118.745 36.6328C117.886 37.6745 116.671 38.1953 115.102 38.1953C113.52 38.1953 112.296 37.6712 111.431 36.623C110.565 35.5749 110.132 34.097 110.132 32.1895V29.5918C110.132 27.6712 110.561 26.1901 111.421 25.1484C112.287 24.1068 113.507 23.5859 115.083 23.5859C116.658 23.5859 117.879 24.11 118.745 25.1582C119.611 26.2064 120.044 27.6875 120.044 29.6016V32.1895ZM116.753 29.1719C116.753 28.1497 116.619 27.388 116.352 26.8867C116.086 26.3789 115.662 26.125 115.083 26.125C114.517 26.125 114.103 26.3594 113.843 26.8281C113.589 27.2969 113.452 28.0065 113.433 28.957V32.5898C113.433 33.651 113.566 34.429 113.833 34.9238C114.1 35.4121 114.523 35.6562 115.102 35.6562C115.662 35.6562 116.076 35.4186 116.343 34.9434C116.61 34.4616 116.746 33.7096 116.753 32.6875V29.1719Z" fill="#333333"/>
</svg>
