<svg width="124" height="87" viewBox="0 0 124 87" fill="none" xmlns="http://www.w3.org/2000/svg">
<path d="M47.5078 48.6191C47.5078 47.5645 47.7129 46.627 48.123 45.8066C48.5332 44.9798 49.1224 44.3451 49.8906 43.9023C50.6589 43.4596 51.5605 43.2383 52.5957 43.2383C54.1777 43.2383 55.4245 43.7298 56.3359 44.7129C57.2474 45.6895 57.7031 47.0208 57.7031 48.707V48.8242C57.7031 50.4714 57.2441 51.7799 56.3262 52.75C55.4147 53.7135 54.1777 54.1953 52.6152 54.1953C51.1113 54.1953 49.9036 53.7461 48.9922 52.8477C48.0807 51.9427 47.5892 50.7188 47.5176 49.1758L47.5078 48.6191ZM50.7988 48.8242C50.7988 49.8008 50.9518 50.5169 51.2578 50.9727C51.5638 51.4284 52.0163 51.6562 52.6152 51.6562C53.7871 51.6562 54.3861 50.7546 54.4121 48.9512V48.6191C54.4121 46.7246 53.8066 45.7773 52.5957 45.7773C51.4954 45.7773 50.8997 46.5944 50.8086 48.2285L50.7988 48.8242ZM62.1758 43.4336L62.2832 44.6738C63.0124 43.7168 64.0182 43.2383 65.3008 43.2383C66.401 43.2383 67.2214 43.5671 67.7617 44.2246C68.3086 44.8822 68.5918 45.8717 68.6113 47.1934V54H65.3105V47.3301C65.3105 46.7962 65.2031 46.4056 64.9883 46.1582C64.7734 45.9043 64.3828 45.7773 63.8164 45.7773C63.1719 45.7773 62.6934 46.0312 62.3809 46.5391V54H59.0898V43.4336H62.1758ZM73.9141 54H70.6133V39H73.9141V54ZM79.4219 54H76.1211V43.4336H79.4219V54ZM75.9258 40.709C75.9258 40.2402 76.0951 39.8561 76.4336 39.5566C76.7721 39.2572 77.2116 39.1074 77.752 39.1074C78.2923 39.1074 78.7318 39.2572 79.0703 39.5566C79.4089 39.8561 79.5781 40.2402 79.5781 40.709C79.5781 41.1777 79.4089 41.5618 79.0703 41.8613C78.7318 42.1608 78.2923 42.3105 77.752 42.3105C77.2116 42.3105 76.7721 42.1608 76.4336 41.8613C76.0951 41.5618 75.9258 41.1777 75.9258 40.709ZM84.4805 43.4336L84.5879 44.6738C85.3171 43.7168 86.3229 43.2383 87.6055 43.2383C88.7057 43.2383 89.526 43.5671 90.0664 44.2246C90.6133 44.8822 90.8965 45.8717 90.916 47.1934V54H87.6152V47.3301C87.6152 46.7962 87.5078 46.4056 87.293 46.1582C87.0781 45.9043 86.6875 45.7773 86.1211 45.7773C85.4766 45.7773 84.998 46.0312 84.6855 46.5391V54H81.3945V43.4336H84.4805ZM97.8594 54.1953C96.2383 54.1953 94.9264 53.7135 93.9238 52.75C92.9212 51.7799 92.4199 50.5202 92.4199 48.9707V48.6973C92.4199 47.6165 92.6185 46.6628 93.0156 45.8359C93.4193 45.0091 94.0052 44.3711 94.7734 43.9219C95.5417 43.4661 96.4531 43.2383 97.5078 43.2383C98.9922 43.2383 100.164 43.7005 101.023 44.625C101.883 45.543 102.312 46.8255 102.312 48.4727V49.752H95.7695C95.8867 50.3444 96.1439 50.8099 96.541 51.1484C96.9382 51.487 97.4525 51.6562 98.084 51.6562C99.1257 51.6562 99.9395 51.2917 100.525 50.5625L102.029 52.3398C101.619 52.9062 101.036 53.3587 100.281 53.6973C99.5326 54.0293 98.7253 54.1953 97.8594 54.1953ZM97.4883 45.7773C96.5247 45.7773 95.9518 46.4154 95.7695 47.6914H99.0898V47.4375C99.1029 46.9102 98.9694 46.5033 98.6895 46.2168C98.4095 45.9238 98.0091 45.7773 97.4883 45.7773Z" fill="#333333"/>
<rect x="19.15" y="17.15" width="97.7" height="62.7" rx="1.85" stroke="#333333" stroke-width="2.3"/>
<rect x="13.15" y="80.15" width="109.7" height="5.7" rx="1.85" stroke="#333333" stroke-width="2.3"/>
<rect x="25.15" y="23.15" width="85.7" height="50.7" rx="1.85" stroke="#333333" stroke-width="2.3"/>
<rect x="8.24537" y="30.2454" width="31.1343" height="43.588" fill="white"/>
<path d="M19.1202 49.9363C19.2259 49.6191 19.8815 48.7943 21.658 48.033C21.3427 46.1417 21.3407 42.9973 23.831 42.3354C26.5845 43.1065 26.9132 46.6666 26.7334 48.3502L28.6367 49.9363L32.4433 47.3986L34.0294 51.5224L33.0777 55.6462L30.2228 58.184L28.3195 59.7701L26.4162 61.3561L23.5612 62.9422L21.3407 61.3561L19.4374 59.4528L16.8997 57.8668L14.3619 55.0118L13.0931 52.4741L15.3136 51.8396L14.3619 49.9363L15.3136 47.3986L19.1202 49.9363Z" fill="#FFED00"/>
<path d="M38.5337 74.6792H9.03621C7.93559 74.6792 7 73.8303 7 72.7162V30.963C7 29.8489 7.88058 29 9.03621 29H38.5888C39.6894 29 40.625 29.8489 40.625 30.963V72.7693C40.5699 73.7773 39.6344 74.6792 38.5337 74.6792ZM9.03621 30.5916C8.81609 30.5916 8.65097 30.7508 8.65097 30.963V72.7693C8.65097 72.9815 8.81609 73.1406 9.03621 73.1406H38.5888C38.8089 73.1406 38.974 72.9815 38.974 72.7693V30.963C38.9189 30.7508 38.7539 30.5916 38.5337 30.5916H9.03621Z" fill="#333333"/>
<path d="M34.2419 50.9642C34.1868 50.9112 34.1318 50.9112 34.0768 50.9112C34.572 49.691 34.517 48.3646 33.8567 47.2505C33.6915 46.9853 33.4164 46.4547 32.6459 46.2425C32.4808 46.1895 32.3708 46.1895 32.2057 46.1895C31.8204 46.1895 31.4902 46.2956 31.1601 46.5078C30.995 46.6139 30.8849 46.72 30.8298 46.773C30.6097 46.9853 30.3896 47.1444 30.2245 47.3566C29.7842 47.728 29.2889 48.2055 28.7936 48.683L28.7386 48.6299C28.2984 48.0994 27.748 47.7811 27.0877 47.6219C27.2528 47.3566 27.3628 47.0914 27.4178 46.8792C27.858 45.5528 27.3628 44.2796 26.1521 43.6429C26.042 43.5899 25.9319 43.5368 25.8219 43.4838C25.8219 43.2715 25.8219 43.0593 25.7118 42.8471C25.4917 42.2635 24.9964 41.8921 24.336 41.7329C24.1709 41.6799 24.0058 41.6799 23.8407 41.6799C23.6756 41.6799 23.5105 41.6799 23.3454 41.7329H23.2904C22.63 41.8921 22.1347 42.2635 21.9145 42.794C21.8045 43.0063 21.8045 43.2185 21.8045 43.4838C21.6944 43.5368 21.5844 43.5899 21.4743 43.6429C20.2636 44.3326 19.7683 45.5528 20.1535 46.9322C20.2085 47.1975 20.3186 47.4097 20.4837 47.6749C19.8233 47.8341 19.273 48.2055 18.8327 48.683C18.8327 48.683 18.8327 48.736 18.7777 48.736C18.2273 48.2585 17.7321 47.8341 17.3468 47.4097C17.1267 47.1975 16.9066 47.0383 16.6865 46.8261C16.6315 46.773 16.5214 46.6669 16.3562 46.5608C16.0811 46.3486 15.6959 46.2425 15.3106 46.2425C15.1455 46.2425 15.0355 46.2425 14.8704 46.2956C14.155 46.4547 13.8248 47.0383 13.6597 47.3036C12.9993 48.4177 12.9443 49.7971 13.4395 50.9642C13.3845 50.9642 13.3294 51.0173 13.2744 51.0173C12.614 51.3887 12.3389 52.0254 12.3939 52.9273C12.3939 53.1926 12.4489 53.4578 12.559 53.67C12.7241 54.2006 13.0543 54.6781 13.4395 55.0494C13.5496 55.1555 13.6597 55.2616 13.7698 55.3147C13.5496 55.7922 13.5496 56.3227 13.8248 56.8002C13.8798 56.9063 13.9899 57.0654 14.0449 57.1715C14.21 57.3838 14.4301 57.596 14.6503 57.8082C15.1455 58.1796 15.7509 58.3918 16.3562 58.4979C16.4113 58.4979 16.4663 58.4979 16.4663 58.4979C16.5764 58.7631 16.7415 58.9754 16.9616 59.1345C17.3468 59.4528 17.8422 59.665 18.2273 59.7181C18.2273 60.0895 18.3374 60.4608 18.5576 60.7792C19.1079 61.4689 19.8783 61.9464 20.6488 62.0525C20.7589 62.2647 20.8689 62.4239 21.034 62.583C22.5199 63.9624 23.0702 64.1747 23.6756 64.1747C24.281 64.1747 24.8313 63.9624 26.3172 62.583C26.4823 62.4239 26.5923 62.2647 26.7024 62.0525C27.4729 61.8933 28.2433 61.4689 28.7936 60.7792C29.0138 60.4608 29.1789 60.0895 29.1239 59.7181C29.5641 59.612 30.0044 59.4528 30.3896 59.1345C30.6097 58.9754 30.7748 58.7631 30.8849 58.4979C30.9399 58.4979 30.995 58.4979 30.995 58.4979C31.6003 58.4448 32.2057 58.1796 32.7009 57.8082C32.9211 57.649 33.1412 57.4368 33.3063 57.1715C33.4164 57.0654 33.4714 56.9063 33.5264 56.8002C33.8016 56.2696 33.8016 55.7391 33.5814 55.3147C33.6915 55.2086 33.8016 55.1555 33.9117 55.0494C34.2969 54.6781 34.6271 54.2006 34.7922 53.67C34.8473 53.4048 34.9023 53.1926 34.9573 52.9273C35.1774 51.9723 34.9023 51.3356 34.2419 50.9642ZM23.4555 43.2715C23.5105 43.2185 23.6206 43.2185 23.6756 43.1654C23.7306 43.1654 23.7306 43.1654 23.7857 43.1654C23.8407 43.1654 23.8407 43.1654 23.8957 43.1654C23.9507 43.1654 24.0608 43.2185 24.1159 43.2715C24.1709 43.3246 24.1709 43.3246 24.1709 43.3776L23.7857 43.9612L23.4555 43.3776C23.4005 43.3246 23.4555 43.2715 23.4555 43.2715ZM22.2998 44.9162C22.4099 44.8631 22.5199 44.8101 22.63 44.757C22.74 44.704 22.7951 44.704 22.7951 44.704L22.8501 44.757L23.7857 46.1364L24.7212 44.757L24.7762 44.704C24.7762 44.704 24.8313 44.704 24.9413 44.757C25.0514 44.8101 25.1615 44.8101 25.2716 44.9162C25.6568 45.1284 26.0971 45.5528 25.8219 46.3486C25.7118 46.6669 25.4917 47.0914 25.1065 47.5688C25.1065 47.5688 25.1065 47.5688 25.0514 47.6219H24.6662H23.6756H22.685H22.2998C22.2998 47.6219 22.2998 47.6219 22.2448 47.5688C21.8595 47.0914 21.6394 46.6669 21.5294 46.3486C21.4743 45.5528 21.9145 45.1284 22.2998 44.9162ZM33.4714 52.7681C33.4714 52.8742 33.4164 53.0334 33.4164 53.1395C33.3063 53.4048 33.1412 53.67 32.9761 53.8292C32.6459 54.1475 32.1506 54.3597 31.6553 54.3597C31.105 54.4658 30.6647 54.4658 30.1695 54.4658H30.1145C30.0594 54.4658 30.0044 54.4658 29.9494 54.4658C29.8943 54.4658 29.7842 54.4658 29.7842 54.5189C29.7292 54.625 29.8392 54.7842 29.8943 54.8372C30.1144 54.9964 30.4446 55.1025 30.6647 55.2616C31.1601 55.4739 31.7103 55.6861 32.1506 55.9513C32.2057 56.0044 32.2607 56.0044 32.2057 56.0574C32.1506 56.1105 32.1506 56.1635 32.0956 56.2696C31.9856 56.3758 31.9305 56.4819 31.8204 56.588C31.5452 56.8002 31.2701 56.9063 30.9399 56.9593C30.8849 56.9593 30.7748 56.9593 30.7197 56.9593C30.2795 56.9593 29.8393 56.8002 29.399 56.588C29.1239 56.4819 28.8486 56.3227 28.6285 56.2166C28.5735 56.1635 28.4084 56.0574 28.2984 56.0574C28.2433 56.0574 28.2433 56.0574 28.1883 56.1105C28.1333 56.2166 28.1333 56.3758 28.2433 56.4819C28.4084 56.7471 28.6835 57.0124 28.9037 57.2246C29.1239 57.4899 29.2889 57.7021 29.5091 57.9143C29.2339 58.1265 28.7936 58.2326 28.4084 58.2326C28.3534 58.2326 28.2433 58.2326 28.1883 58.2326C27.748 58.1796 27.3628 57.9143 27.1427 57.596C27.0326 57.4368 26.9776 57.2777 26.8675 57.1185C26.7574 56.9063 26.5373 56.8002 26.3172 56.8002C26.2071 56.8002 26.0971 56.8532 25.987 56.9063C25.5467 57.2246 25.1065 57.7021 25.1065 57.7021C25.4917 58.0204 26.8124 59.2937 27.6379 59.8242C27.2528 60.3017 26.8124 60.5139 26.3722 60.5139C25.987 60.5139 25.5467 60.3017 25.1065 59.9303C24.9413 59.7711 24.7762 59.612 24.6662 59.612C24.6112 59.612 24.6112 59.612 24.5561 59.665C24.4461 59.7711 24.5561 60.1956 24.6112 60.3017C24.7212 60.5669 25.2716 61.3628 25.3266 61.4158C25.3266 61.4158 24.0608 62.583 23.7857 62.583C23.5105 62.583 22.2448 61.4158 22.2448 61.4158C22.2998 61.3097 22.8501 60.5139 22.9602 60.3017C23.0152 60.1956 23.1253 59.7711 23.0152 59.665C22.9602 59.612 22.9602 59.612 22.9051 59.612C22.74 59.612 22.63 59.7711 22.4649 59.9303C22.0246 60.3017 21.6394 60.5139 21.1991 60.5139C20.7589 60.5139 20.3186 60.2486 19.9334 59.8242C20.7589 59.2406 22.0796 58.0204 22.4649 57.7021C22.4649 57.7021 21.9696 57.2246 21.5844 56.9063C21.4743 56.8532 21.3643 56.8002 21.2542 56.8002C21.034 56.8002 20.8139 56.9063 20.7039 57.1185C20.5938 57.2777 20.5388 57.4368 20.4287 57.596C20.2085 57.9143 19.8233 58.1796 19.4381 58.1796C19.3831 58.1796 19.273 58.1796 19.2179 58.1796C18.8327 58.1796 18.3925 58.0735 18.1173 57.8612C18.3374 57.649 18.5576 57.3838 18.7227 57.1715C18.9428 56.9063 19.1629 56.6941 19.3831 56.4288C19.4381 56.3227 19.4932 56.1635 19.4381 56.0574C19.4381 56.0044 19.3831 56.0044 19.328 56.0044C19.2179 56.0044 19.1079 56.1105 18.9978 56.1635C18.7227 56.2696 18.4475 56.4288 18.1723 56.5349C17.7321 56.7471 17.3468 56.9063 16.8516 56.9063C16.7965 56.9063 16.6865 56.9063 16.6315 56.9063C16.3012 56.8532 16.0261 56.7471 15.7509 56.5349C15.6409 56.4288 15.5308 56.3227 15.4757 56.2166C15.4207 56.1635 15.3656 56.1105 15.3656 56.0044C15.3106 55.9513 15.3656 55.8983 15.4207 55.8983C15.861 55.633 16.4113 55.4208 16.9066 55.2086C17.1817 55.1025 17.4569 54.9964 17.7321 54.7842C17.8422 54.7311 17.9522 54.5719 17.8422 54.4658C17.7871 54.4658 17.7321 54.4658 17.622 54.4658C17.567 54.4658 17.4569 54.4658 17.4569 54.4658H17.4019C16.9066 54.4658 16.4663 54.4658 15.971 54.4128C15.4757 54.4128 14.9805 54.2006 14.6503 53.8823C14.4301 53.67 14.265 53.4578 14.21 53.1926C14.155 53.0865 14.155 52.9273 14.0999 52.8212C14.0999 52.7151 14.0449 52.4498 14.155 52.3967H14.21C14.32 52.3967 14.4301 52.3967 14.4851 52.4498C14.6503 52.4498 14.7603 52.4498 14.9254 52.5029C15.2556 52.5029 15.5858 52.5559 15.916 52.609C16.2462 52.609 16.5764 52.662 16.9066 52.662H16.9616C17.0717 52.662 17.1267 52.662 17.2368 52.5559C17.3468 52.4498 17.3468 52.3437 17.2368 52.2906C16.7415 52.0253 16.2462 51.8131 15.806 51.4417C14.8704 50.6459 14.4851 49.1604 15.1455 48.0994C15.1455 48.0463 15.2556 47.8341 15.3106 47.8341C15.3106 47.8341 15.3106 47.8341 15.3656 47.8872C15.4207 47.9402 15.4757 47.9933 15.5308 48.0463C15.7509 48.2055 15.971 48.4177 16.1361 48.5769C17.2918 49.6379 18.4475 50.6459 19.6032 51.707C19.6582 51.7601 19.7683 51.8662 19.8233 51.9192C19.328 52.3437 19.273 53.1395 19.6032 53.67C19.8233 54.0414 20.2636 54.2006 20.7039 54.2006C20.8689 54.2006 21.034 54.2006 21.1991 54.0945C22.2998 53.7231 22.3549 52.1315 21.3092 51.707C21.1441 51.654 21.034 51.6009 20.8689 51.6009C20.7589 51.6009 20.6488 51.6009 20.7039 51.4948C20.8139 51.2295 21.034 50.9642 21.1991 50.699C20.979 50.6459 20.7589 50.5929 20.4837 50.5929H20.4287C20.3186 50.5929 20.2085 50.5929 20.0985 50.6459C20.0434 50.6459 19.9334 50.699 19.8783 50.752C19.8233 50.8051 19.7683 50.8581 19.7133 50.8581C19.5482 49.9562 20.2636 49.1604 21.1991 49.1604C21.2542 49.1604 21.3092 49.1604 21.3643 49.1604C21.5294 49.1604 21.7495 49.2135 21.9145 49.2135C22.1897 49.2135 22.4099 49.2665 22.685 49.3196C22.74 49.3196 22.7951 49.3196 22.9051 49.3196C23.0702 49.3196 23.2904 49.3726 23.4555 49.3726C23.1253 49.9032 23.0702 50.5929 23.3454 51.1765C23.4555 51.4417 23.6206 51.707 23.7306 51.9723C23.8407 51.707 24.0058 51.4417 24.1159 51.1765C24.3911 50.5929 24.3911 49.9032 24.0058 49.3726C24.1709 49.3726 24.3911 49.3196 24.5561 49.3196C24.6112 49.3196 24.7212 49.3196 24.7762 49.3196C25.0514 49.3196 25.2716 49.2665 25.5467 49.2135C25.7118 49.2135 25.9319 49.1604 26.0971 49.1604C26.1521 49.1604 26.2071 49.1604 26.2622 49.1604C27.1977 49.1604 27.9131 49.9562 27.748 50.8581C27.693 50.8581 27.6379 50.752 27.5829 50.752C27.5279 50.699 27.4178 50.699 27.3628 50.6459C27.2528 50.5929 27.1427 50.5929 27.0326 50.5929H26.9776C26.7574 50.5929 26.4823 50.6459 26.2622 50.699C26.4272 50.9642 26.6474 51.2295 26.7574 51.4948C26.8124 51.654 26.7574 51.6009 26.5923 51.6009C26.4272 51.6009 26.3172 51.654 26.1521 51.707C25.1065 52.1315 25.1615 53.7762 26.2622 54.0945C26.4272 54.1475 26.5923 54.2006 26.7574 54.2006C27.1977 54.2006 27.5829 54.0414 27.8581 53.67C28.1883 53.1395 28.1333 52.3437 27.6379 51.9192C27.693 51.8662 27.803 51.7601 27.8581 51.707C29.0138 50.6459 30.1695 49.5849 31.3251 48.5769C31.5452 48.4177 31.7654 48.2055 31.9305 48.0463C31.9856 47.9933 32.0406 47.9402 32.0956 47.8872C32.0956 47.8872 32.0956 47.8341 32.1506 47.8341C32.2057 47.8341 32.3157 48.0463 32.3157 48.0994C32.9761 49.1604 32.5909 50.6459 31.6553 51.4417C31.2151 51.8131 30.7197 51.9723 30.2245 52.2906C30.1145 52.3437 30.1695 52.4498 30.2245 52.5559C30.2795 52.6089 30.3896 52.662 30.4996 52.662H30.5547C30.8849 52.662 31.2151 52.609 31.5452 52.609C31.8755 52.5559 32.2057 52.5559 32.5358 52.5029C32.7009 52.5029 32.811 52.5028 32.9761 52.4498C33.0312 52.4498 33.1963 52.3967 33.2513 52.3967C33.3063 52.3967 33.3063 52.3967 33.3063 52.3967C33.5264 52.3967 33.4714 52.662 33.4714 52.7681Z" fill="#333333"/>
<path d="M34.2419 50.9642C34.1868 50.9112 34.1318 50.9112 34.0768 50.9112C34.572 49.691 34.517 48.3646 33.8567 47.2505C33.6915 46.9853 33.4164 46.4547 32.6459 46.2425C32.4808 46.1895 32.3708 46.1895 32.2057 46.1895C31.8204 46.1895 31.4902 46.2956 31.1601 46.5078C30.995 46.6139 30.8849 46.72 30.8298 46.773C30.6097 46.9853 30.3896 47.1444 30.2245 47.3566C29.7842 47.728 29.2889 48.2055 28.7936 48.683L28.7386 48.6299C28.2984 48.0994 27.748 47.7811 27.0877 47.6219C27.2528 47.3566 27.3628 47.0914 27.4178 46.8792C27.858 45.5528 27.3628 44.2796 26.1521 43.6429C26.042 43.5899 25.9319 43.5368 25.8219 43.4838C25.8219 43.2715 25.8219 43.0593 25.7118 42.8471C25.4917 42.2635 24.9964 41.8921 24.336 41.7329C24.1709 41.6799 24.0058 41.6799 23.8407 41.6799C23.6756 41.6799 23.5105 41.6799 23.3454 41.7329H23.2904C22.63 41.8921 22.1347 42.2635 21.9145 42.794C21.8045 43.0063 21.8045 43.2185 21.8045 43.4838C21.6944 43.5368 21.5844 43.5899 21.4743 43.6429C20.2636 44.3326 19.7683 45.5528 20.1535 46.9322C20.2085 47.1975 20.3186 47.4097 20.4837 47.6749C19.8233 47.8341 19.273 48.2055 18.8327 48.683C18.8327 48.683 18.8327 48.736 18.7777 48.736C18.2273 48.2585 17.7321 47.8341 17.3468 47.4097C17.1267 47.1975 16.9066 47.0383 16.6865 46.8261C16.6315 46.773 16.5214 46.6669 16.3562 46.5608C16.0811 46.3486 15.6959 46.2425 15.3106 46.2425C15.1455 46.2425 15.0355 46.2425 14.8704 46.2956C14.155 46.4547 13.8248 47.0383 13.6597 47.3036C12.9993 48.4177 12.9443 49.7971 13.4395 50.9642C13.3845 50.9642 13.3294 51.0173 13.2744 51.0173C12.614 51.3887 12.3389 52.0254 12.3939 52.9273C12.3939 53.1926 12.4489 53.4578 12.559 53.67C12.7241 54.2006 13.0543 54.6781 13.4395 55.0494C13.5496 55.1555 13.6597 55.2616 13.7698 55.3147C13.5496 55.7922 13.5496 56.3227 13.8248 56.8002C13.8798 56.9063 13.9899 57.0654 14.0449 57.1715C14.21 57.3838 14.4301 57.596 14.6503 57.8082C15.1455 58.1796 15.7509 58.3918 16.3562 58.4979C16.4113 58.4979 16.4663 58.4979 16.4663 58.4979C16.5764 58.7631 16.7415 58.9754 16.9616 59.1345C17.3468 59.4528 17.8422 59.665 18.2273 59.7181C18.2273 60.0895 18.3374 60.4608 18.5576 60.7792C19.1079 61.4689 19.8783 61.9464 20.6488 62.0525C20.7589 62.2647 20.8689 62.4239 21.034 62.583C22.5199 63.9624 23.0702 64.1747 23.6756 64.1747C24.281 64.1747 24.8313 63.9624 26.3172 62.583C26.4823 62.4239 26.5923 62.2647 26.7024 62.0525C27.4729 61.8933 28.2433 61.4689 28.7936 60.7792C29.0138 60.4608 29.1789 60.0895 29.1239 59.7181C29.5641 59.612 30.0044 59.4528 30.3896 59.1345C30.6097 58.9754 30.7748 58.7631 30.8849 58.4979C30.9399 58.4979 30.995 58.4979 30.995 58.4979C31.6003 58.4448 32.2057 58.1796 32.7009 57.8082C32.9211 57.649 33.1412 57.4368 33.3063 57.1715C33.4164 57.0654 33.4714 56.9063 33.5264 56.8002C33.8016 56.2696 33.8016 55.7391 33.5814 55.3147C33.6915 55.2086 33.8016 55.1555 33.9117 55.0494C34.2969 54.6781 34.6271 54.2006 34.7922 53.67C34.8473 53.4048 34.9023 53.1926 34.9573 52.9273C35.1774 51.9723 34.9023 51.3356 34.2419 50.9642ZM23.4555 43.2715C23.5105 43.2185 23.6206 43.2185 23.6756 43.1654C23.7306 43.1654 23.7306 43.1654 23.7857 43.1654C23.8407 43.1654 23.8407 43.1654 23.8957 43.1654C23.9507 43.1654 24.0608 43.2185 24.1159 43.2715C24.1709 43.3246 24.1709 43.3246 24.1709 43.3776L23.7857 43.9612L23.4555 43.3776C23.4005 43.3246 23.4555 43.2715 23.4555 43.2715ZM22.2998 44.9162C22.4099 44.8631 22.5199 44.8101 22.63 44.757C22.74 44.704 22.7951 44.704 22.7951 44.704L22.8501 44.757L23.7857 46.1364L24.7212 44.757L24.7762 44.704C24.7762 44.704 24.8313 44.704 24.9413 44.757C25.0514 44.8101 25.1615 44.8101 25.2716 44.9162C25.6568 45.1284 26.0971 45.5528 25.8219 46.3486C25.7118 46.6669 25.4917 47.0914 25.1065 47.5688C25.1065 47.5688 25.1065 47.5688 25.0514 47.6219H24.6662H23.6756H22.685H22.2998C22.2998 47.6219 22.2998 47.6219 22.2448 47.5688C21.8595 47.0914 21.6394 46.6669 21.5294 46.3486C21.4743 45.5528 21.9145 45.1284 22.2998 44.9162ZM33.4714 52.7681C33.4714 52.8742 33.4164 53.0334 33.4164 53.1395C33.3063 53.4048 33.1412 53.67 32.9761 53.8292C32.6459 54.1475 32.1506 54.3597 31.6553 54.3597C31.105 54.4658 30.6647 54.4658 30.1695 54.4658H30.1145C30.0594 54.4658 30.0044 54.4658 29.9494 54.4658C29.8943 54.4658 29.7842 54.4658 29.7842 54.5189C29.7292 54.625 29.8392 54.7842 29.8943 54.8372C30.1144 54.9964 30.4446 55.1025 30.6647 55.2616C31.1601 55.4739 31.7103 55.6861 32.1506 55.9513C32.2057 56.0044 32.2607 56.0044 32.2057 56.0574C32.1506 56.1105 32.1506 56.1635 32.0956 56.2696C31.9856 56.3758 31.9305 56.4819 31.8204 56.588C31.5452 56.8002 31.2701 56.9063 30.9399 56.9593C30.8849 56.9593 30.7748 56.9593 30.7197 56.9593C30.2795 56.9593 29.8393 56.8002 29.399 56.588C29.1239 56.4819 28.8486 56.3227 28.6285 56.2166C28.5735 56.1635 28.4084 56.0574 28.2984 56.0574C28.2433 56.0574 28.2433 56.0574 28.1883 56.1105C28.1333 56.2166 28.1333 56.3758 28.2433 56.4819C28.4084 56.7471 28.6835 57.0124 28.9037 57.2246C29.1239 57.4899 29.2889 57.7021 29.5091 57.9143C29.2339 58.1265 28.7936 58.2326 28.4084 58.2326C28.3534 58.2326 28.2433 58.2326 28.1883 58.2326C27.748 58.1796 27.3628 57.9143 27.1427 57.596C27.0326 57.4368 26.9776 57.2777 26.8675 57.1185C26.7574 56.9063 26.5373 56.8002 26.3172 56.8002C26.2071 56.8002 26.0971 56.8532 25.987 56.9063C25.5467 57.2246 25.1065 57.7021 25.1065 57.7021C25.4917 58.0204 26.8124 59.2937 27.6379 59.8242C27.2528 60.3017 26.8124 60.5139 26.3722 60.5139C25.987 60.5139 25.5467 60.3017 25.1065 59.9303C24.9413 59.7711 24.7762 59.612 24.6662 59.612C24.6112 59.612 24.6112 59.612 24.5561 59.665C24.4461 59.7711 24.5561 60.1956 24.6112 60.3017C24.7212 60.5669 25.2716 61.3628 25.3266 61.4158C25.3266 61.4158 24.0608 62.583 23.7857 62.583C23.5105 62.583 22.2448 61.4158 22.2448 61.4158C22.2998 61.3097 22.8501 60.5139 22.9602 60.3017C23.0152 60.1956 23.1253 59.7711 23.0152 59.665C22.9602 59.612 22.9602 59.612 22.9051 59.612C22.74 59.612 22.63 59.7711 22.4649 59.9303C22.0246 60.3017 21.6394 60.5139 21.1991 60.5139C20.7589 60.5139 20.3186 60.2486 19.9334 59.8242C20.7589 59.2406 22.0796 58.0204 22.4649 57.7021C22.4649 57.7021 21.9696 57.2246 21.5844 56.9063C21.4743 56.8532 21.3643 56.8002 21.2542 56.8002C21.034 56.8002 20.8139 56.9063 20.7039 57.1185C20.5938 57.2777 20.5388 57.4368 20.4287 57.596C20.2085 57.9143 19.8233 58.1796 19.4381 58.1796C19.3831 58.1796 19.273 58.1796 19.2179 58.1796C18.8327 58.1796 18.3925 58.0735 18.1173 57.8612C18.3374 57.649 18.5576 57.3838 18.7227 57.1715C18.9428 56.9063 19.1629 56.6941 19.3831 56.4288C19.4381 56.3227 19.4932 56.1635 19.4381 56.0574C19.4381 56.0044 19.3831 56.0044 19.328 56.0044C19.2179 56.0044 19.1079 56.1105 18.9978 56.1635C18.7227 56.2696 18.4475 56.4288 18.1723 56.5349C17.7321 56.7471 17.3468 56.9063 16.8516 56.9063C16.7965 56.9063 16.6865 56.9063 16.6315 56.9063C16.3012 56.8532 16.0261 56.7471 15.7509 56.5349C15.6409 56.4288 15.5308 56.3227 15.4757 56.2166C15.4207 56.1635 15.3656 56.1105 15.3656 56.0044C15.3106 55.9513 15.3656 55.8983 15.4207 55.8983C15.861 55.633 16.4113 55.4208 16.9066 55.2086C17.1817 55.1025 17.4569 54.9964 17.7321 54.7842C17.8422 54.7311 17.9522 54.5719 17.8422 54.4658C17.7871 54.4658 17.7321 54.4658 17.622 54.4658C17.567 54.4658 17.4569 54.4658 17.4569 54.4658H17.4019C16.9066 54.4658 16.4663 54.4658 15.971 54.4128C15.4757 54.4128 14.9805 54.2006 14.6503 53.8823C14.4301 53.67 14.265 53.4578 14.21 53.1926C14.155 53.0865 14.155 52.9273 14.0999 52.8212C14.0999 52.7151 14.0449 52.4498 14.155 52.3967H14.21C14.32 52.3967 14.4301 52.3967 14.4851 52.4498C14.6503 52.4498 14.7603 52.4498 14.9254 52.5029C15.2556 52.5029 15.5858 52.5559 15.916 52.609C16.2462 52.609 16.5764 52.662 16.9066 52.662H16.9616C17.0717 52.662 17.1267 52.662 17.2368 52.5559C17.3468 52.4498 17.3468 52.3437 17.2368 52.2906C16.7415 52.0253 16.2462 51.8131 15.806 51.4417C14.8704 50.6459 14.4851 49.1604 15.1455 48.0994C15.1455 48.0463 15.2556 47.8341 15.3106 47.8341C15.3106 47.8341 15.3106 47.8341 15.3656 47.8872C15.4207 47.9402 15.4757 47.9933 15.5308 48.0463C15.7509 48.2055 15.971 48.4177 16.1361 48.5769C17.2918 49.6379 18.4475 50.6459 19.6032 51.707C19.6582 51.7601 19.7683 51.8662 19.8233 51.9192C19.328 52.3437 19.273 53.1395 19.6032 53.67C19.8233 54.0414 20.2636 54.2006 20.7039 54.2006C20.8689 54.2006 21.034 54.2006 21.1991 54.0945C22.2998 53.7231 22.3549 52.1315 21.3092 51.707C21.1441 51.654 21.034 51.6009 20.8689 51.6009C20.7589 51.6009 20.6488 51.6009 20.7039 51.4948C20.8139 51.2295 21.034 50.9642 21.1991 50.699C20.979 50.6459 20.7589 50.5929 20.4837 50.5929H20.4287C20.3186 50.5929 20.2085 50.5929 20.0985 50.6459C20.0434 50.6459 19.9334 50.699 19.8783 50.752C19.8233 50.8051 19.7683 50.8581 19.7133 50.8581C19.5482 49.9562 20.2636 49.1604 21.1991 49.1604C21.2542 49.1604 21.3092 49.1604 21.3643 49.1604C21.5294 49.1604 21.7495 49.2135 21.9145 49.2135C22.1897 49.2135 22.4099 49.2665 22.685 49.3196C22.74 49.3196 22.7951 49.3196 22.9051 49.3196C23.0702 49.3196 23.2904 49.3726 23.4555 49.3726C23.1253 49.9032 23.0702 50.5929 23.3454 51.1765C23.4555 51.4417 23.6206 51.707 23.7306 51.9723C23.8407 51.707 24.0058 51.4417 24.1159 51.1765C24.3911 50.5929 24.3911 49.9032 24.0058 49.3726C24.1709 49.3726 24.3911 49.3196 24.5561 49.3196C24.6112 49.3196 24.7212 49.3196 24.7762 49.3196C25.0514 49.3196 25.2716 49.2665 25.5467 49.2135C25.7118 49.2135 25.9319 49.1604 26.0971 49.1604C26.1521 49.1604 26.2071 49.1604 26.2622 49.1604C27.1977 49.1604 27.9131 49.9562 27.748 50.8581C27.693 50.8581 27.6379 50.752 27.5829 50.752C27.5279 50.699 27.4178 50.699 27.3628 50.6459C27.2528 50.5929 27.1427 50.5929 27.0326 50.5929H26.9776C26.7574 50.5929 26.4823 50.6459 26.2622 50.699C26.4272 50.9642 26.6474 51.2295 26.7574 51.4948C26.8124 51.654 26.7574 51.6009 26.5923 51.6009C26.4272 51.6009 26.3172 51.654 26.1521 51.707C25.1065 52.1315 25.1615 53.7762 26.2622 54.0945C26.4272 54.1475 26.5923 54.2006 26.7574 54.2006C27.1977 54.2006 27.5829 54.0414 27.8581 53.67C28.1883 53.1395 28.1333 52.3437 27.6379 51.9192C27.693 51.8662 27.803 51.7601 27.8581 51.707C29.0138 50.6459 30.1695 49.5849 31.3251 48.5769C31.5452 48.4177 31.7654 48.2055 31.9305 48.0463C31.9856 47.9933 32.0406 47.9402 32.0956 47.8872C32.0956 47.8872 32.0956 47.8341 32.1506 47.8341C32.2057 47.8341 32.3157 48.0463 32.3157 48.0994C32.9761 49.1604 32.5909 50.6459 31.6553 51.4417C31.2151 51.8131 30.7197 51.9723 30.2245 52.2906C30.1145 52.3437 30.1695 52.4498 30.2245 52.5559C30.2795 52.6089 30.3896 52.662 30.4996 52.662H30.5547C30.8849 52.662 31.2151 52.609 31.5452 52.609C31.8755 52.5559 32.2057 52.5559 32.5358 52.5029C32.7009 52.5029 32.811 52.5028 32.9761 52.4498C33.0312 52.4498 33.1963 52.3967 33.2513 52.3967C33.3063 52.3967 33.3063 52.3967 33.3063 52.3967C33.5264 52.3967 33.4714 52.662 33.4714 52.7681Z" fill="#333333"/>
<path d="M33.4702 68.5689H14.0987C13.8546 68.5689 13.6531 68.3545 13.6531 68.1534V67.0924C13.6531 66.8914 13.8546 66.6769 14.0987 66.6769H33.4702C33.7142 66.6769 33.9158 66.8914 33.9158 67.0924V68.1534C33.9158 68.3545 33.7142 68.5689 33.4702 68.5689Z" fill="#333333" stroke="#333333"/>
<path d="M32.0968 35.9788H15.7081C15.4918 35.9788 15.3132 35.815 15.3132 35.6616C15.3132 35.5081 15.4918 35.3444 15.7081 35.3444H32.048C32.2643 35.3444 32.4429 35.5081 32.4429 35.6616C32.4429 35.8413 32.283 35.9788 32.0968 35.9788Z" fill="#333333" stroke="#333333"/>
<path d="M30.7876 39.151H16.3337C16.1221 39.151 15.9475 38.9873 15.9475 38.8338C15.9475 38.6803 16.1221 38.5166 16.3337 38.5166H30.7876C30.9992 38.5166 31.1739 38.6803 31.1739 38.8338C31.1739 38.9999 31.0323 39.151 30.7876 39.151Z" fill="#333333" stroke="#333333"/>
</svg>
