<svg width="93" height="92" viewBox="0 0 93 92" fill="none" xmlns="http://www.w3.org/2000/svg">
<mask id="path-1-inside-1" fill="white">
<rect x="20" y="85" width="73" height="7" rx="2"/>
</mask>
<rect x="20" y="85" width="73" height="7" rx="2" stroke="#333333" stroke-width="4.6" mask="url(#path-1-inside-1)"/>
<path d="M89 41V45C89 46.1046 88.1046 47 87 47H25C23.8954 47 23 46.1046 23 45V41.5" stroke="#333333" stroke-width="2.3"/>
<path d="M88 86.927V83C88 81.8954 87.1046 81 86 81H26C24.8954 81 24 81.8954 24 83V87" stroke="#333333" stroke-width="2.3"/>
<path d="M37.4788 79.9513V77C37.4788 76.4477 37.0311 76 36.4788 76H27.1689C26.6167 76 26.1689 76.4477 26.1689 77V80" stroke="#333333" stroke-width="2.3"/>
<path d="M37.4788 47.0487V50C37.4788 50.5523 37.0311 51 36.4788 51H27.1689C26.6167 51 26.1689 50.5523 26.1689 50V47" stroke="#333333" stroke-width="2.3"/>
<path d="M29.2535 75.5V51.5" stroke="#333333" stroke-width="2.3"/>
<path d="M34.3944 51V75" stroke="#333333" stroke-width="2.3"/>
<path d="M53.9295 79.9513V77C53.9295 76.4477 53.4818 76 52.9295 76H43.6196C43.0673 76 42.6196 76.4477 42.6196 77V80" stroke="#333333" stroke-width="2.3"/>
<path d="M53.9295 47.0487V50C53.9295 50.5523 53.4818 51 52.9295 51H43.6196C43.0673 51 42.6196 50.5523 42.6196 50V47" stroke="#333333" stroke-width="2.3"/>
<path d="M45.7041 75.5V51.5" stroke="#333333" stroke-width="2.3"/>
<path d="M50.8451 51V75" stroke="#333333" stroke-width="2.3"/>
<path d="M70 79.9513V77C70 76.4477 69.5523 76 69 76H60C59.4477 76 59 76.4477 59 77V80" stroke="#333333" stroke-width="2.3"/>
<path d="M70 47.0487V50C70 50.5523 69.5523 51 69 51H60C59.4477 51 59 50.5523 59 50V47" stroke="#333333" stroke-width="2.3"/>
<path d="M62 75.5V51.5" stroke="#333333" stroke-width="2.3"/>
<path d="M67 51V75" stroke="#333333" stroke-width="2.3"/>
<path d="M86 79.9513V77C86 76.4477 85.5523 76 85 76H76C75.4477 76 75 76.4477 75 77V80" stroke="#333333" stroke-width="2.3"/>
<path d="M86 47.0487V50C86 50.5523 85.5523 51 85 51H76C75.4477 51 75 50.5523 75 50V47" stroke="#333333" stroke-width="2.3"/>
<path d="M78 75.5V51.5" stroke="#333333" stroke-width="2.3"/>
<path d="M83 51V75" stroke="#333333" stroke-width="2.3"/>
<path d="M91.5 39.6964V40.3C91.5 40.9627 90.9627 41.5 90.3 41.5H86H56.5H27H22.2C21.5373 41.5 21 40.9627 21 40.3V39.7013C21 39.268 21.2335 38.8684 21.611 38.6558L55.9068 19.3342C56.2747 19.1269 56.7245 19.1283 57.0912 19.3378L90.8954 38.6545C91.2693 38.8681 91.5 39.2658 91.5 39.6964Z" stroke="#333333" stroke-width="2.3"/>
<circle cx="57" cy="32" r="3.85" fill="#FFED00" stroke="#333333" stroke-width="2.3"/>
<path d="M49 32H44.5" stroke="#333333" stroke-width="2.3" stroke-linecap="round"/>
<path d="M69.5 32H65" stroke="#333333" stroke-width="2.3" stroke-linecap="round"/>
</svg>
