<svg width="19" height="20" viewBox="0 0 19 20" fill="none" xmlns="http://www.w3.org/2000/svg">
<path d="M6.32798 15.0006L12.914 8.41457C13.105 8.23007 13.2574 8.00938 13.3622 7.76538C13.467 7.52137 13.5222 7.25893 13.5245 6.99337C13.5268 6.72781 13.4762 6.46445 13.3756 6.21866C13.2751 5.97287 13.1266 5.74956 12.9388 5.56178C12.751 5.37399 12.5277 5.22549 12.2819 5.12493C12.0361 5.02436 11.7727 4.97376 11.5072 4.97607C11.2416 4.97837 10.9792 5.03355 10.7352 5.13836C10.4912 5.24318 10.2705 5.39555 10.086 5.58657L3.67198 12.1726C2.94335 12.927 2.54017 13.9374 2.54928 14.9862C2.5584 16.035 2.97907 17.0382 3.72071 17.7798C4.46234 18.5215 5.46559 18.9422 6.51437 18.9513C7.56316 18.9604 8.57357 18.5572 9.32798 17.8286L15.743 11.2436C16.8683 10.1183 17.5005 8.592 17.5005 7.00057C17.5005 5.40913 16.8683 3.88288 15.743 2.75757C14.6177 1.63225 13.0914 1.00006 11.5 1.00006C9.90855 1.00006 8.38229 1.63225 7.25698 2.75757L0.999982 9.00057" stroke="#333333" stroke-width="2" stroke-linecap="round" stroke-linejoin="round"/>
</svg>
