<svg width="17" height="19" viewBox="0 0 17 19" fill="none" xmlns="http://www.w3.org/2000/svg">
<path d="M10.7866 8.21327C10.1041 7.53098 9.17847 7.14771 8.21338 7.14771C7.24828 7.14771 6.32269 7.53098 5.64013 8.21327L3.06605 10.7865C2.38347 11.4691 2 12.3949 2 13.3602C2 14.3255 2.38347 15.2513 3.06605 15.9338C3.74862 16.6164 4.6744 16.9999 5.63971 16.9999C6.60502 16.9999 7.5308 16.6164 8.21338 15.9338L9.5 14.6472" stroke="#333333" stroke-width="2.3" stroke-linecap="round" stroke-linejoin="round"/>
<path d="M7 10.7866C7.68257 11.4689 8.60815 11.8522 9.57325 11.8522C10.5383 11.8522 11.4639 11.4689 12.1465 10.7866L14.7206 8.21338C15.4032 7.5308 15.7866 6.60502 15.7866 5.63971C15.7866 4.6744 15.4032 3.74862 14.7206 3.06605C14.038 2.38347 13.1122 2 12.1469 2C11.1816 2 10.2558 2.38347 9.57325 3.06605L8.28662 4.35267" stroke="#333333" stroke-width="2.3" stroke-linecap="round" stroke-linejoin="round"/>
</svg>
