<svg width="42" height="35" viewBox="0 0 42 35" fill="none" xmlns="http://www.w3.org/2000/svg">
<path d="M35.6989 13.7561L2.48949 13.8529L2.36328 7.38968L35.5491 7.29297L35.6989 13.7561Z" fill="#333333"/>
<path d="M5.7002 18.6393L18.8659 18.601" stroke="#333333" stroke-width="2.3" stroke-miterlimit="10" stroke-linecap="round" stroke-linejoin="round"/>
<path d="M5.78125 22.472L13.2162 22.4503" stroke="#333333" stroke-width="2.3" stroke-miterlimit="10" stroke-linecap="round" stroke-linejoin="round"/>
<path d="M33.6674 27.4682L3.61128 27.5558C2.64358 27.5586 1.90869 26.5497 2.0751 25.4506L2 3.57869C2.12947 2.72021 2.77413 2.08978 3.52475 2.0876L33.5808 2.00001C34.5485 1.99719 35.2835 3.00618 35.1171 4.10525L35.1921 25.9772C35.0627 26.8356 34.4227 27.466 33.6674 27.4682Z" stroke="#333333" stroke-width="2.3" stroke-miterlimit="10" stroke-linecap="round" stroke-linejoin="round"/>
<circle cx="33.9443" cy="26.7225" r="6.90565" fill="#FFED00" stroke="#333333" stroke-width="2.3"/>
<path d="M32.4729 31.5559C32.1968 31.5559 31.9729 31.3321 31.9729 31.0559V30.303C31.9729 30.0269 31.7491 29.803 31.4729 29.803H31.2705C31.0391 29.803 30.8516 29.6155 30.8516 29.3841V29.3841C30.8516 29.1528 31.0391 28.9652 31.2705 28.9652H31.4729C31.7491 28.9652 31.9729 28.7414 31.9729 28.4652V28.3181C31.9729 28.042 31.7491 27.8181 31.4729 27.8181H31.3413C31.0708 27.8181 30.8516 27.5988 30.8516 27.3283V27.3283C30.8516 27.0578 31.0708 26.8385 31.3413 26.8385H31.4729C31.7491 26.8385 31.9729 26.6147 31.9729 26.3385V22.8531C31.9729 22.577 32.1968 22.3531 32.4729 22.3531H34.396C35.5217 22.3531 36.3552 22.5809 36.8965 23.0363C37.4465 23.4917 37.7214 24.1533 37.7214 25.0212C37.7214 25.8976 37.425 26.5851 36.8321 27.0834C36.2392 27.5732 35.367 27.8181 34.2156 27.8181H33.6329C33.3568 27.8181 33.1329 28.042 33.1329 28.3181V28.4652C33.1329 28.7414 33.3568 28.9652 33.6329 28.9652H34.8407C35.0721 28.9652 35.2596 29.1528 35.2596 29.3841V29.3841C35.2596 29.6155 35.0721 29.803 34.8407 29.803H33.6329C33.3568 29.803 33.1329 30.0269 33.1329 30.303V31.0559C33.1329 31.3321 32.9091 31.5559 32.6329 31.5559H32.4729ZM34.048 26.8385C34.83 26.8385 35.4358 26.7096 35.8654 26.4519C36.3036 26.1941 36.5227 25.7301 36.5227 25.0598C36.5227 24.4755 36.3423 24.0416 35.9814 23.7581C35.6205 23.4745 35.0577 23.3327 34.2929 23.3327H33.6329C33.3568 23.3327 33.1329 23.5566 33.1329 23.8327V26.3385C33.1329 26.6147 33.3568 26.8385 33.6329 26.8385H34.048Z" fill="#333333"/>
</svg>
