<svg width="130" height="112" viewBox="0 0 130 112" fill="none" xmlns="http://www.w3.org/2000/svg">
<path d="M118.542 62.3315H117.383V61.2207C117.251 61.2435 117.137 61.2549 117.042 61.2549C116.433 61.2549 115.975 61.1375 115.667 60.9028C115.362 60.6659 115.208 60.3115 115.206 59.8398V58.6333H116.358V59.8501C116.36 60.0506 116.408 60.1873 116.501 60.2603C116.595 60.3309 116.775 60.3662 117.042 60.3662C117.153 60.3662 117.267 60.356 117.383 60.3354V58.6333H118.542V62.3315ZM121.242 62.3315C121.201 62.2563 121.165 62.1458 121.133 62C120.921 62.2666 120.625 62.3999 120.244 62.3999C119.896 62.3999 119.599 62.2951 119.355 62.0854C119.112 61.8735 118.99 61.6081 118.99 61.2891C118.99 60.888 119.138 60.585 119.434 60.3799C119.73 60.1748 120.161 60.0723 120.726 60.0723H121.082V59.8774C121.082 59.5379 120.935 59.3682 120.641 59.3682C120.367 59.3682 120.23 59.5026 120.23 59.7715H119.079C119.079 59.4137 119.23 59.1232 119.533 58.8999C119.839 58.6766 120.227 58.5649 120.699 58.5649C121.17 58.5649 121.543 58.68 121.816 58.9102C122.09 59.1403 122.23 59.4559 122.237 59.8569V61.4941C122.241 61.8337 122.294 62.0934 122.394 62.2734V62.3315H121.242ZM120.521 61.5796C120.665 61.5796 120.783 61.5488 120.876 61.4873C120.972 61.4258 121.041 61.3563 121.082 61.2788V60.6875H120.747C120.346 60.6875 120.145 60.8675 120.145 61.2275C120.145 61.3324 120.18 61.4178 120.251 61.4839C120.322 61.5477 120.412 61.5796 120.521 61.5796ZM124.441 61.5112C124.603 61.5112 124.729 61.4679 124.817 61.3813C124.906 61.2925 124.95 61.1694 124.947 61.0122H126.027C126.027 61.4178 125.882 61.7505 125.59 62.0103C125.3 62.27 124.927 62.3999 124.469 62.3999C123.931 62.3999 123.507 62.2313 123.197 61.894C122.887 61.5568 122.732 61.0897 122.732 60.4927V60.4448C122.732 60.0711 122.801 59.7419 122.938 59.457C123.076 59.1699 123.276 58.95 123.536 58.7974C123.795 58.6424 124.103 58.5649 124.458 58.5649C124.939 58.5649 125.321 58.6982 125.604 58.9648C125.886 59.2314 126.027 59.5926 126.027 60.0483H124.947C124.947 59.8569 124.901 59.71 124.807 59.6074C124.714 59.5049 124.588 59.4536 124.431 59.4536C124.133 59.4536 123.958 59.6439 123.908 60.0244C123.892 60.1452 123.884 60.3115 123.884 60.5234C123.884 60.8949 123.929 61.1523 124.018 61.2959C124.106 61.4395 124.248 61.5112 124.441 61.5112ZM128.598 62.3315C128.557 62.2563 128.52 62.1458 128.488 62C128.276 62.2666 127.98 62.3999 127.6 62.3999C127.251 62.3999 126.955 62.2951 126.711 62.0854C126.467 61.8735 126.345 61.6081 126.345 61.2891C126.345 60.888 126.493 60.585 126.79 60.3799C127.086 60.1748 127.516 60.0723 128.082 60.0723H128.437V59.8774C128.437 59.5379 128.29 59.3682 127.996 59.3682C127.723 59.3682 127.586 59.5026 127.586 59.7715H126.434C126.434 59.4137 126.586 59.1232 126.889 58.8999C127.194 58.6766 127.583 58.5649 128.054 58.5649C128.526 58.5649 128.898 58.68 129.172 58.9102C129.445 59.1403 129.585 59.4559 129.592 59.8569V61.4941C129.597 61.8337 129.649 62.0934 129.75 62.2734V62.3315H128.598ZM127.876 61.5796C128.02 61.5796 128.139 61.5488 128.232 61.4873C128.328 61.4258 128.396 61.3563 128.437 61.2788V60.6875H128.102C127.701 60.6875 127.5 60.8675 127.5 61.2275C127.5 61.3324 127.536 61.4178 127.606 61.4839C127.677 61.5477 127.767 61.5796 127.876 61.5796Z" fill="#333333"/>
<path d="M101.724 62.3315H91.8018V60.1831L96.3721 55.3784C97.4984 54.0959 98.0615 53.077 98.0615 52.3218C98.0615 51.7098 97.9281 51.2443 97.6611 50.9253C97.3942 50.6063 97.0068 50.4468 96.499 50.4468C95.9977 50.4468 95.5908 50.6616 95.2783 51.0913C94.9658 51.5145 94.8096 52.0451 94.8096 52.6831H91.5088C91.5088 51.8107 91.7269 51.0067 92.1631 50.271C92.5993 49.5288 93.2048 48.9494 93.9795 48.5327C94.7542 48.116 95.6201 47.9077 96.5771 47.9077C98.1136 47.9077 99.2952 48.2625 100.122 48.9722C100.955 49.6818 101.372 50.7007 101.372 52.0288C101.372 52.5887 101.268 53.1356 101.06 53.6694C100.851 54.1968 100.526 54.7534 100.083 55.3394C99.6468 55.9188 98.9404 56.6968 97.9639 57.6733L96.1279 59.7925H101.724V62.3315ZM112.075 56.7749H113.521V59.314H112.075V62.3315H108.784V59.314H103.286L103.091 57.3022L108.784 48.1421V48.1128H112.075V56.7749ZM106.226 56.7749H108.784V52.3999L108.579 52.7319L106.226 56.7749Z" fill="#333333"/>
<path d="M83.4326 78.8315C82.9473 70.581 79.6355 60.9172 71.6681 57.1563C71.2283 56.9487 70.9326 56.5142 70.9326 56.0279L70.9326 55.0208C70.9326 54.594 71.1575 54.2036 71.5174 53.9743C75.6617 51.3333 82.9326 44.4836 82.9326 35.3315" stroke="#333333" stroke-width="2.3" stroke-linecap="round"/>
<path d="M47.4326 77.3315C47.9179 69.081 51.2298 59.4172 59.1972 55.6563C59.6369 55.4487 59.9326 55.0142 59.9326 54.5279L59.9326 53.5208C59.9326 53.094 59.7078 52.7036 59.3478 52.4743C55.2035 49.8333 47.9326 42.9836 47.9326 33.8315" stroke="#333333" stroke-width="2.3" stroke-linecap="round"/>
<mask id="path-5-inside-1" fill="white">
<rect x="88.9326" y="34.3315" width="47" height="7" rx="2" transform="rotate(-180 88.9326 34.3315)"/>
</mask>
<rect x="88.9326" y="34.3315" width="47" height="7" rx="2" transform="rotate(-180 88.9326 34.3315)" stroke="#333333" stroke-width="4.6" mask="url(#path-5-inside-1)"/>
<mask id="path-6-inside-2" fill="white">
<rect x="88.9326" y="84.3315" width="47" height="7" rx="2" transform="rotate(-180 88.9326 84.3315)"/>
</mask>
<rect x="88.9326" y="84.3315" width="47" height="7" rx="2" transform="rotate(-180 88.9326 84.3315)" stroke="#333333" stroke-width="4.6" mask="url(#path-6-inside-2)"/>
<path d="M76.9207 42.1438C75.1808 45.2798 69.6154 50.2463 66.0598 52.8764C65.6794 53.1577 65.1709 53.1798 64.7789 52.9151C61.4804 50.6877 55.8998 45.1881 54.0352 42.153C53.6388 41.5078 54.1384 40.8309 54.8957 40.831C60.7402 40.8315 67.4413 40.8309 76.0143 40.8308C76.7559 40.8308 77.2804 41.4954 76.9207 42.1438Z" fill="#FFED00"/>
<path d="M70.4683 75.0637C69.6586 73.5134 67.9727 71.4472 66.6674 70.0715C66.2555 69.6373 65.5865 69.6114 65.1713 70.0425C63.9432 71.3179 62.2945 73.5146 61.4577 75.0486C61.1066 75.6922 61.5911 76.3314 62.3242 76.3314C64.3913 76.3313 66.7296 76.3315 69.574 76.3315C70.2953 76.3315 70.8022 75.7031 70.4683 75.0637Z" fill="#FFED00"/>
<path d="M96.8074 39.9359C98.2838 40.8737 100.777 41.8201 102.595 42.3588C103.169 42.5289 103.761 42.2168 103.905 41.6358C104.331 39.9173 104.661 37.1905 104.618 35.4437C104.601 34.7108 103.861 34.3994 103.227 34.766C101.436 35.7997 99.4113 36.9686 96.948 38.3908C96.3233 38.7514 96.1985 39.5492 96.8074 39.9359Z" fill="#333333"/>
<path d="M25.5232 68.2099C25.6776 68.826 26.3022 69.2002 26.9183 69.0458C27.5343 68.8914 27.9086 68.2668 27.7541 67.6507L25.5232 68.2099ZM29.8082 39.8348L28.783 39.3137L28.783 39.3137L29.8082 39.8348ZM50.6386 20.7169L50.2071 19.6509L50.6386 20.7169ZM78.9023 19.9633L79.2763 18.8759L79.2763 18.8759L78.9023 19.9633ZM27.7541 67.6507C25.455 58.4789 26.5486 48.785 30.8333 40.3559L28.783 39.3137C24.2469 48.2374 23.0891 58.5 25.5232 68.2099L27.7541 67.6507ZM30.8333 40.3559C35.1181 31.9268 42.3052 25.3306 51.0701 21.7829L50.2071 19.6509C40.928 23.4067 33.3192 30.39 28.783 39.3137L30.8333 40.3559ZM51.0701 21.7829C59.8349 18.2352 69.5868 17.9752 78.5282 21.0508L79.2763 18.8759C69.8102 15.6198 59.4862 15.895 50.2071 19.6509L51.0701 21.7829ZM78.5282 21.0508C87.4696 24.1264 94.9981 30.3303 99.7259 38.5192L101.718 37.3692C96.7125 28.6999 88.7424 22.1319 79.2763 18.8759L78.5282 21.0508Z" fill="#333333"/>
<path d="M36.0277 75.0147C34.4711 74.2171 31.9013 73.5048 30.0412 73.136C29.454 73.0196 28.893 73.385 28.8033 73.9768C28.5377 75.7273 28.4611 78.4728 28.6644 80.2083C28.7497 80.9364 29.5144 81.1783 30.1128 80.7547C31.7999 79.5603 33.7086 78.2096 36.0302 76.5663C36.619 76.1496 36.6696 75.3437 36.0277 75.0147Z" fill="#333333"/>
<path d="M103.819 69.3598C104.054 68.7695 103.765 68.101 103.175 67.8666C102.584 67.6323 101.916 67.9208 101.681 68.5111L103.819 69.3598ZM83.7722 89.8933L84.3001 90.915L83.7722 89.8933ZM55.6985 93.2507L55.9707 92.1334L55.9707 92.1334L55.6985 93.2507ZM101.681 68.5111C98.1925 77.2995 91.6445 84.5306 83.2442 88.8717L84.3001 90.915C93.1933 86.3192 100.126 78.6638 103.819 69.3598L101.681 68.5111ZM83.2442 88.8717C74.844 93.2127 65.1577 94.3711 55.9707 92.1334L55.4264 94.3681C65.1524 96.7371 75.407 95.5107 84.3001 90.915L83.2442 88.8717ZM55.9707 92.1334C46.7836 89.8957 38.7151 84.4126 33.2521 76.6948L31.3748 78.0236C37.1583 86.1942 45.7003 91.999 55.4264 94.3681L55.9707 92.1334Z" fill="#333333"/>
</svg>
