<svg width="78" height="85" viewBox="0 0 78 85" fill="none" xmlns="http://www.w3.org/2000/svg">
<path d="M62.6558 46.1609L2.87952 46.3351L2.65234 34.7014L62.3861 34.5273L62.6558 46.1609Z" fill="#333333"/>
<path d="M8.65967 54.9504L32.3577 54.8813" stroke="#333333" stroke-width="2.3" stroke-miterlimit="10" stroke-linecap="round" stroke-linejoin="round"/>
<path d="M8.80433 61.8491L22.1871 61.8101" stroke="#333333" stroke-width="2.3" stroke-miterlimit="10" stroke-linecap="round" stroke-linejoin="round"/>
<path d="M59.0007 70.8423L4.90026 71C3.15843 71.005 1.83564 69.1889 2.13518 67.2106L2 27.8416C2.23305 26.2964 3.39341 25.1616 4.74451 25.1577L58.8448 25C60.5866 24.9949 61.9096 26.8111 61.61 28.7894L61.7451 68.1584C61.5122 69.7036 60.3601 70.8383 59.0007 70.8423Z" stroke="#333333" stroke-width="2.3" stroke-miterlimit="10" stroke-linecap="round" stroke-linejoin="round"/>
<circle cx="59.5" cy="69.5" r="13.35" fill="#FFED00" stroke="#333333" stroke-width="2.3"/>
<path d="M56.4506 78.1998C56.1745 78.1998 55.9506 77.976 55.9506 77.6998V75.5446C55.9506 75.2685 55.7268 75.0446 55.4506 75.0446H54.4322C54.1561 75.0446 53.9322 74.8208 53.9322 74.5446V74.0366C53.9322 73.7605 54.1561 73.5366 54.4322 73.5366H55.4506C55.7268 73.5366 55.9506 73.3128 55.9506 73.0366V71.9718C55.9506 71.6957 55.7268 71.4718 55.4506 71.4718H54.4322C54.1561 71.4718 53.9322 71.248 53.9322 70.9718V70.2086C53.9322 69.9325 54.1561 69.7086 54.4322 69.7086H55.4506C55.7268 69.7086 55.9506 69.4848 55.9506 69.2086V62.135C55.9506 61.8589 56.1745 61.635 56.4506 61.635H60.3122C62.3384 61.635 63.8386 62.0449 64.813 62.8646C65.8029 63.6843 66.2978 64.8753 66.2978 66.4374C66.2978 68.015 65.7642 69.2523 64.697 70.1494C63.6298 71.031 62.06 71.4718 59.9874 71.4718H58.5386C58.2625 71.4718 58.0386 71.6957 58.0386 71.9718V73.0366C58.0386 73.3128 58.2625 73.5366 58.5386 73.5366H61.3666C61.6428 73.5366 61.8666 73.7605 61.8666 74.0366V74.5446C61.8666 74.8208 61.6428 75.0446 61.3666 75.0446H58.5386C58.2625 75.0446 58.0386 75.2685 58.0386 75.5446V77.6998C58.0386 77.976 57.8148 78.1998 57.5386 78.1998H56.4506ZM59.6858 69.7086C61.0933 69.7086 62.1837 69.4766 62.957 69.0126C63.7458 68.5486 64.1402 67.7134 64.1402 66.507C64.1402 65.4553 63.8154 64.6742 63.1658 64.1638C62.5162 63.6534 61.5032 63.3982 60.1266 63.3982H58.5386C58.2625 63.3982 58.0386 63.6221 58.0386 63.8982V69.2086C58.0386 69.4848 58.2625 69.7086 58.5386 69.7086H59.6858Z" fill="#333333"/>
</svg>
