<svg width="77" height="87" viewBox="0 0 77 87" fill="none" xmlns="http://www.w3.org/2000/svg">
<path d="M28 5V28C33 31 43.5 36.5 48 39C57 18 40.5 4.5 28 5Z" fill="#FFED00"/>
<circle cx="28" cy="28" r="22.85" stroke="#333333" stroke-width="2.3"/>
<circle cx="28" cy="28" r="26.85" stroke="#333333" stroke-width="2.3"/>
<circle cx="10" cy="72" r="8.85" fill="#FFED00" stroke="#333333" stroke-width="2.3"/>
<circle cx="28" cy="28" r="2" fill="#333333"/>
<line x1="31.5429" y1="30.4857" x2="43.4857" y2="36.4571" stroke="#333333" stroke-width="2.3" stroke-linecap="round"/>
<line x1="27.85" y1="23.85" x2="27.85" y2="16.15" stroke="#333333" stroke-width="2.3" stroke-linecap="round"/>
<line x1="27.85" y1="10.85" x2="27.85" y2="9.15" stroke="#333333" stroke-width="2.3" stroke-linecap="round"/>
<line x1="27.85" y1="46.85" x2="27.85" y2="45.15" stroke="#333333" stroke-width="2.3" stroke-linecap="round"/>
<line x1="9.15" y1="27.85" x2="10.85" y2="27.85" stroke="#333333" stroke-width="2.3" stroke-linecap="round"/>
<line x1="12.5948" y1="18.681" x2="13.681" y2="19.4052" stroke="#333333" stroke-width="2.3" stroke-linecap="round"/>
<line x1="1.15" y1="-1.15" x2="2.45555" y2="-1.15" transform="matrix(0.83205 -0.5547 -0.5547 -0.83205 11 37)" stroke="#333333" stroke-width="2.3" stroke-linecap="round"/>
<line x1="1.15" y1="-1.15" x2="2.45555" y2="-1.15" transform="matrix(-0.83205 0.5547 0.5547 0.83205 46 20)" stroke="#333333" stroke-width="2.3" stroke-linecap="round"/>
<line x1="18.5948" y1="12.319" x2="19.319" y2="13.4052" stroke="#333333" stroke-width="2.3" stroke-linecap="round"/>
<line x1="1.15" y1="-1.15" x2="2.45555" y2="-1.15" transform="matrix(0.5547 -0.83205 -0.83205 -0.5547 17 44)" stroke="#333333" stroke-width="2.3" stroke-linecap="round"/>
<line x1="1.15" y1="-1.15" x2="2.45555" y2="-1.15" transform="matrix(-0.5547 0.83205 0.83205 0.5547 40 12)" stroke="#333333" stroke-width="2.3" stroke-linecap="round"/>
<line x1="38.4052" y1="43.681" x2="37.681" y2="42.5948" stroke="#333333" stroke-width="2.3" stroke-linecap="round"/>
<line x1="45.15" y1="27.85" x2="46.85" y2="27.85" stroke="#333333" stroke-width="2.3" stroke-linecap="round"/>
<path d="M32.3555 72.8635L24.4143 65.3635C24.0854 65.0529 24.3052 64.5 24.7576 64.5H64.8293C64.94 64.5 65.0475 64.5367 65.1351 64.6044L74.8409 72.1044C75.2183 72.3959 75.0121 73 74.5352 73H32.6988C32.5711 73 32.4483 72.9512 32.3555 72.8635Z" stroke="#333333" stroke-width="2.3"/>
<path d="M24 69L32.0969 76.8588C32.1902 76.9493 32.3151 77 32.4452 77H75" stroke="#333333" stroke-width="2.3" stroke-linecap="round"/>
<path d="M24 73L32.0969 80.8588C32.1902 80.9493 32.3151 81 32.4452 81H75" stroke="#333333" stroke-width="2.3" stroke-linecap="round"/>
<path d="M24 77L32.0969 84.8588C32.1902 84.9493 32.3151 85 32.4452 85H75" stroke="#333333" stroke-width="2.3" stroke-linecap="round"/>
<path d="M8.05216 77.9999C7.77601 77.9999 7.55216 77.7761 7.55216 77.4999V76.3239C7.55216 76.0478 7.3283 75.8239 7.05216 75.8239H6.66016C6.38401 75.8239 6.16016 75.6001 6.16016 75.3239V75.2839C6.16016 75.0078 6.38401 74.7839 6.66016 74.7839H7.05216C7.3283 74.7839 7.55216 74.5601 7.55216 74.2839V73.8599C7.55216 73.5838 7.3283 73.3599 7.05216 73.3599H6.66016C6.38401 73.3599 6.16016 73.1361 6.16016 72.8599V72.6439C6.16016 72.3678 6.38401 72.1439 6.66016 72.1439H7.05216C7.3283 72.1439 7.55216 71.9201 7.55216 71.6439V67.0759C7.55216 66.7998 7.77601 66.5759 8.05216 66.5759H10.5602C11.9575 66.5759 12.9922 66.8586 13.6642 67.4239C14.3468 67.9893 14.6882 68.8106 14.6882 69.8879C14.6882 70.9759 14.3202 71.8293 13.5842 72.4479C12.8482 73.0559 11.7655 73.3599 10.3362 73.3599H9.49216C9.21601 73.3599 8.99216 73.5838 8.99216 73.8599V74.2839C8.99216 74.5601 9.21601 74.7839 9.49216 74.7839H11.1322C11.4083 74.7839 11.6322 75.0078 11.6322 75.2839V75.3239C11.6322 75.6001 11.4083 75.8239 11.1322 75.8239H9.49216C9.21601 75.8239 8.99216 76.0478 8.99216 76.3239V77.4999C8.99216 77.7761 8.7683 77.9999 8.49216 77.9999H8.05216ZM10.1282 72.1439C11.0988 72.1439 11.8508 71.9839 12.3842 71.6639C12.9282 71.3439 13.2002 70.7679 13.2002 69.9359C13.2002 69.2106 12.9762 68.6719 12.5282 68.3199C12.0802 67.9679 11.3815 67.7919 10.4322 67.7919H9.49216C9.21601 67.7919 8.99216 68.0158 8.99216 68.2919V71.6439C8.99216 71.9201 9.21601 72.1439 9.49216 72.1439H10.1282Z" fill="#333333"/>
</svg>
