<svg width="76" height="85" viewBox="0 0 76 85" fill="none" xmlns="http://www.w3.org/2000/svg">
<path d="M19.1035 46C19.2702 45.5 20.3035 44.2 23.1036 43C22.6067 40.0188 22.6036 35.0627 26.5287 34.0193C30.8688 35.2347 31.387 40.8462 31.1035 43.5L34.1035 46L40.1035 42L42.6035 48.5L41.1035 55L36.6035 59L33.6035 61.5L30.6035 64L26.1035 66.5L22.6035 64L19.6035 61L15.6035 58.5L11.6035 54L9.60352 50L13.1035 49L11.6035 46L13.1035 42L19.1035 46Z" fill="#FFED00"/>
<path d="M49.7037 85H3.20949C1.47468 85 0 83.662 0 81.9059V16.0941C0 14.338 1.38797 13 3.20949 13H49.7905C51.5253 13 53 14.338 53 16.0941V81.9896C52.9132 83.5784 51.4386 85 49.7037 85ZM3.20949 15.5087C2.86253 15.5087 2.60228 15.7596 2.60228 16.0941V81.9896C2.60228 82.324 2.86253 82.5748 3.20949 82.5748H49.7905C50.1375 82.5748 50.3977 82.324 50.3977 81.9896V16.0941C50.3109 15.7596 50.0508 15.5087 49.7037 15.5087H3.20949Z" fill="#333333"/>
<path d="M42.939 47.6203C42.8521 47.5368 42.7654 47.5368 42.6787 47.5368C43.4593 45.6135 43.3726 43.5228 42.3317 41.7667C42.0715 41.3487 41.6378 40.5124 40.4234 40.1779C40.1631 40.0943 39.9897 40.0943 39.7295 40.0943C39.1222 40.0943 38.6017 40.2616 38.0814 40.596C37.8211 40.7633 37.6476 40.9305 37.5609 41.0141C37.2139 41.3487 36.8669 41.5995 36.6067 41.934C35.9128 42.5194 35.132 43.272 34.3514 44.0246L34.2647 43.941C33.5707 43.1048 32.7033 42.603 31.6624 42.3521C31.9226 41.934 32.096 41.5159 32.1828 41.1814C32.8767 39.0908 32.0961 37.0839 30.1877 36.0803C30.0143 35.9968 29.8407 35.9131 29.6673 35.8295C29.6673 35.4949 29.6673 35.1604 29.4938 34.826C29.1468 33.9061 28.3661 33.3208 27.3252 33.0699C27.0649 32.9863 26.8048 32.9863 26.5445 32.9863C26.2843 32.9863 26.024 32.9863 25.7638 33.0699H25.6771C24.6362 33.3208 23.8555 33.9061 23.5085 34.7424C23.335 35.0769 23.335 35.4114 23.335 35.8295C23.1615 35.9131 22.9881 35.9968 22.8145 36.0803C20.9062 37.1674 20.1255 39.0908 20.7328 41.265C20.8195 41.6832 20.993 42.0176 21.2531 42.4357C20.2123 42.6866 19.3449 43.272 18.6509 44.0246C18.6509 44.0246 18.6509 44.1082 18.5642 44.1082C17.6967 43.3556 16.916 42.6866 16.3088 42.0176C15.9619 41.6832 15.6149 41.4322 15.2679 41.0978C15.1812 41.0141 15.0077 40.8468 14.7474 40.6796C14.3138 40.3451 13.7066 40.1779 13.0993 40.1779C12.8391 40.1779 12.6657 40.1779 12.4054 40.2616C11.2778 40.5124 10.7573 41.4322 10.4971 41.8504C9.45617 43.6065 9.36946 45.7807 10.1501 47.6203C10.0634 47.6203 9.97656 47.704 9.88985 47.704C8.84896 48.2894 8.41529 49.2929 8.502 50.7145C8.502 51.1326 8.58871 51.5507 8.76225 51.8851C9.0225 52.7215 9.54289 53.4741 10.1501 54.0594C10.3236 54.2266 10.4971 54.3939 10.6706 54.4775C10.3236 55.2302 10.3236 56.0664 10.7573 56.819C10.844 56.9862 11.0176 57.237 11.1043 57.4043C11.3645 57.7389 11.7115 58.0734 12.0585 58.4078C12.8391 58.9932 13.7933 59.3277 14.7474 59.495C14.8343 59.495 14.921 59.495 14.921 59.495C15.0944 59.913 15.3547 60.2476 15.7016 60.4984C16.3088 61.0001 17.0896 61.3346 17.6967 61.4183C17.6967 62.0037 17.8702 62.589 18.2172 63.0908C19.0847 64.1778 20.299 64.9304 21.5134 65.0977C21.6869 65.4322 21.8604 65.6831 22.1206 65.934C24.4626 68.1081 25.3301 68.4427 26.2843 68.4427C27.2385 68.4427 28.1059 68.1081 30.4479 65.934C30.7082 65.6831 30.8816 65.4322 31.0552 65.0977C32.2696 64.8469 33.4839 64.1778 34.3514 63.0908C34.6983 62.589 34.9586 62.0037 34.8719 61.4183C35.5658 61.251 36.2597 61.0001 36.8669 60.4984C37.2139 60.2476 37.4741 59.913 37.6476 59.495C37.7344 59.495 37.8211 59.495 37.8211 59.495C38.7753 59.4113 39.7295 58.9932 40.5101 58.4078C40.8571 58.1569 41.204 57.8224 41.4643 57.4043C41.6378 57.237 41.7245 56.9862 41.8112 56.819C42.245 55.9827 42.245 55.1465 41.8979 54.4775C42.0715 54.3103 42.245 54.2266 42.4185 54.0594C43.0257 53.4741 43.5462 52.7215 43.8063 51.8851C43.8931 51.4671 43.9798 51.1326 44.0666 50.7145C44.4135 49.2092 43.9798 48.2057 42.939 47.6203ZM25.9373 35.4949C26.024 35.4114 26.1976 35.4114 26.2843 35.3277C26.371 35.3277 26.371 35.3277 26.4578 35.3277C26.5445 35.3277 26.5445 35.3277 26.6312 35.3277C26.7179 35.3277 26.8915 35.4114 26.9782 35.4949C27.0649 35.5786 27.0649 35.5786 27.0649 35.6622L26.4578 36.582L25.9373 35.6622C25.8506 35.5786 25.9373 35.4949 25.9373 35.4949ZM24.1157 38.0873C24.2892 38.0036 24.4626 37.9201 24.6362 37.8364C24.8096 37.7528 24.8964 37.7528 24.8964 37.7528L24.9831 37.8364L26.4578 40.0106L27.9324 37.8364L28.0191 37.7528C28.0191 37.7528 28.1059 37.7528 28.2793 37.8364C28.4529 37.9201 28.6263 37.9201 28.7998 38.0873C29.4071 38.4218 30.101 39.0908 29.6673 40.3451C29.4938 40.8468 29.1468 41.5159 28.5396 42.2684C28.5396 42.2684 28.5396 42.2684 28.4529 42.3521H27.8457H26.2843H24.7229H24.1157C24.1157 42.3521 24.1157 42.3521 24.029 42.2684C23.4217 41.5159 23.0748 40.8468 22.9014 40.3451C22.8145 39.0908 23.5085 38.4218 24.1157 38.0873ZM41.7245 50.4635C41.7245 50.6308 41.6378 50.8817 41.6378 51.0489C41.4643 51.4671 41.204 51.8851 40.9438 52.1361C40.4234 52.6378 39.6426 52.9723 38.862 52.9723C37.9945 53.1395 37.3006 53.1395 36.52 53.1395H36.4333C36.3464 53.1395 36.2597 53.1395 36.173 53.1395C36.0862 53.1395 35.9128 53.1395 35.9128 53.2232C35.826 53.3904 35.9995 53.6413 36.0862 53.7249C36.4331 53.9758 36.9536 54.1431 37.3006 54.3939C38.0814 54.7285 38.9487 55.0629 39.6426 55.481C39.7295 55.5647 39.8162 55.5646 39.7295 55.6482C39.6426 55.7319 39.6426 55.8155 39.5559 55.9827C39.3825 56.1501 39.2957 56.3173 39.1222 56.4845C38.6885 56.819 38.2548 56.9863 37.7344 57.0698C37.6476 57.0698 37.4741 57.0698 37.3873 57.0698C36.6934 57.0698 35.9995 56.819 35.3055 56.4845C34.8719 56.3173 34.4381 56.0664 34.0911 55.8991C34.0044 55.8155 33.7442 55.6482 33.5707 55.6482C33.4839 55.6482 33.4839 55.6482 33.3972 55.7319C33.3105 55.8991 33.3105 56.1501 33.4839 56.3173C33.7442 56.7353 34.1778 57.1535 34.5249 57.488C34.8719 57.9061 35.132 58.2406 35.4791 58.5751C35.0453 58.9096 34.3514 59.0768 33.7442 59.0768C33.6574 59.0768 33.4839 59.0768 33.3972 59.0768C32.7033 58.9932 32.0961 58.5751 31.7491 58.0734C31.5755 57.8224 31.4888 57.5716 31.3154 57.3207C31.1419 56.9862 30.7949 56.819 30.4479 56.819C30.2744 56.819 30.101 56.9026 29.9274 56.9862C29.2335 57.488 28.5396 58.2406 28.5396 58.2406C29.1468 58.7423 31.2286 60.7493 32.5297 61.5855C31.9226 62.3382 31.2286 62.6726 30.5347 62.6726C29.9274 62.6726 29.2335 62.3382 28.5396 61.7528C28.2793 61.5018 28.0191 61.251 27.8457 61.251C27.759 61.251 27.759 61.251 27.6721 61.3346C27.4987 61.5018 27.6721 62.1709 27.759 62.3382C27.9324 62.7562 28.7998 64.0106 28.8866 64.0942C28.8866 64.0942 26.8915 65.934 26.4578 65.934C26.024 65.934 24.029 64.0942 24.029 64.0942C24.1157 63.927 24.9831 62.6726 25.1567 62.3382C25.2434 62.1709 25.4168 61.5018 25.2434 61.3346C25.1567 61.251 25.1567 61.251 25.0698 61.251C24.8096 61.251 24.6362 61.5018 24.3759 61.7528C23.682 62.3382 23.0748 62.6726 22.3809 62.6726C21.6869 62.6726 20.993 62.2545 20.3858 61.5855C21.6869 60.6656 23.7687 58.7423 24.3759 58.2406C24.3759 58.2406 23.5953 57.488 22.9881 56.9862C22.8145 56.9026 22.6411 56.819 22.4676 56.819C22.1206 56.819 21.7736 56.9862 21.6002 57.3207C21.4267 57.5716 21.34 57.8224 21.1664 58.0734C20.8195 58.5751 20.2123 58.9932 19.605 58.9932C19.5183 58.9932 19.3449 58.9932 19.2581 58.9932C18.6509 58.9932 17.9569 58.826 17.5233 58.4914C17.8702 58.1569 18.2172 57.7389 18.4774 57.4043C18.8244 56.9862 19.1714 56.6518 19.5183 56.2336C19.605 56.0664 19.6919 55.8154 19.605 55.6482C19.605 55.5646 19.5183 55.5647 19.4316 55.5647C19.2581 55.5647 19.0847 55.7319 18.9111 55.8155C18.4774 55.9827 18.0436 56.2336 17.61 56.4008C16.916 56.7353 16.3088 56.9862 15.5282 56.9862C15.4414 56.9862 15.2679 56.9862 15.1812 56.9862C14.6607 56.9026 14.2271 56.7353 13.7933 56.4008C13.6198 56.2336 13.4463 56.0664 13.3596 55.8991C13.2729 55.8155 13.1861 55.7319 13.1861 55.5647C13.0993 55.481 13.1861 55.3974 13.2729 55.3974C13.9668 54.9792 14.8343 54.6448 15.6149 54.3103C16.0486 54.1431 16.4824 53.9758 16.916 53.6413C17.0896 53.5577 17.263 53.3067 17.0896 53.1395C17.0028 53.1395 16.916 53.1395 16.7425 53.1395C16.6558 53.1395 16.4824 53.1395 16.4824 53.1395H16.3955C15.6149 53.1395 14.921 53.1395 14.1402 53.0559C13.3596 53.0559 12.579 52.7215 12.0585 52.2197C11.7115 51.8851 11.4512 51.5507 11.3645 51.1326C11.2778 50.9654 11.2778 50.7145 11.191 50.5472C11.191 50.38 11.1043 49.9618 11.2778 49.8783H11.3645C11.538 49.8783 11.7115 49.8783 11.7982 49.9618C12.0585 49.9618 12.2319 49.9618 12.4921 50.0455C13.0126 50.0455 13.5331 50.1291 14.0535 50.2127C14.574 50.2127 15.0944 50.2963 15.6149 50.2963H15.7016C15.8752 50.2963 15.9619 50.2963 16.1354 50.1291C16.3088 49.9618 16.3088 49.7946 16.1354 49.711C15.3547 49.2929 14.574 48.9584 13.8801 48.373C12.4054 47.1186 11.7982 44.7771 12.8391 43.1047C12.8391 43.0211 13.0126 42.6866 13.0993 42.6866C13.0993 42.6866 13.0993 42.6866 13.1861 42.7703C13.2729 42.8538 13.3596 42.9375 13.4463 43.0211C13.7933 43.272 14.1402 43.6065 14.4005 43.8574C16.2221 45.5298 18.0436 47.1186 19.8653 48.7911C19.952 48.8747 20.1255 49.0419 20.2123 49.1256C19.4316 49.7946 19.3449 51.0489 19.8653 51.8851C20.2123 52.4705 20.9062 52.7215 21.6002 52.7215C21.8604 52.7215 22.1206 52.7215 22.3809 52.5542C24.1157 51.9688 24.2025 49.4601 22.5543 48.7911C22.2941 48.7075 22.1206 48.6239 21.8604 48.6239C21.6869 48.6239 21.5134 48.6239 21.6002 48.4567C21.7736 48.0385 22.1206 47.6203 22.3809 47.2023C22.0339 47.1186 21.6869 47.0351 21.2531 47.0351H21.1664C20.993 47.0351 20.8195 47.0351 20.646 47.1186C20.5592 47.1186 20.3858 47.2023 20.299 47.2859C20.2123 47.3695 20.1255 47.4531 20.0388 47.4531C19.7786 46.0315 20.9062 44.7771 22.3809 44.7771C22.4676 44.7771 22.5543 44.7771 22.6411 44.7771C22.9014 44.7771 23.2483 44.8608 23.5085 44.8608C23.9423 44.8608 24.2892 44.9444 24.7229 45.0281C24.8096 45.0281 24.8964 45.0281 25.0698 45.0281C25.3301 45.0281 25.6771 45.1116 25.9373 45.1116C25.4168 45.9479 25.3301 47.0351 25.7638 47.9549C25.9373 48.373 26.1976 48.7911 26.371 49.2092C26.5445 48.7911 26.8048 48.373 26.9782 47.9549C27.412 47.0351 27.412 45.9479 26.8048 45.1116C27.0649 45.1116 27.412 45.0281 27.6721 45.0281C27.759 45.0281 27.9324 45.0281 28.0191 45.0281C28.4529 45.0281 28.7998 44.9444 29.2335 44.8608C29.4938 44.8608 29.8407 44.7771 30.101 44.7771C30.1877 44.7771 30.2744 44.7771 30.3612 44.7771C31.8358 44.7771 32.9635 46.0315 32.7033 47.4531C32.6166 47.4531 32.5297 47.2859 32.443 47.2859C32.3563 47.2023 32.1828 47.2023 32.096 47.1186C31.9226 47.0351 31.7491 47.0351 31.5755 47.0351H31.4888C31.1419 47.0351 30.7082 47.1186 30.3612 47.2023C30.6214 47.6203 30.9685 48.0385 31.1419 48.4567C31.2286 48.7075 31.1419 48.6239 30.8816 48.6239C30.6214 48.6239 30.4479 48.7075 30.1877 48.7911C28.5396 49.4601 28.6263 52.0525 30.3612 52.5542C30.6214 52.6378 30.8816 52.7215 31.1419 52.7215C31.8358 52.7215 32.443 52.4705 32.8767 51.8851C33.3972 51.0489 33.3105 49.7946 32.5297 49.1256C32.6166 49.0419 32.79 48.8747 32.8767 48.7911C34.6983 47.1186 36.52 45.4462 38.3415 43.8574C38.6885 43.6065 39.0355 43.272 39.2957 43.0211C39.3825 42.9375 39.4692 42.8538 39.5559 42.7703C39.5559 42.7703 39.5559 42.6866 39.6426 42.6866C39.7295 42.6866 39.9029 43.0211 39.9029 43.1047C40.9438 44.7771 40.3367 47.1186 38.862 48.373C38.1681 48.9584 37.3873 49.2092 36.6067 49.711C36.4333 49.7946 36.52 49.9618 36.6067 50.1291C36.6934 50.2127 36.8669 50.2963 37.0404 50.2963H37.1272C37.6476 50.2963 38.1681 50.2127 38.6885 50.2127C39.209 50.1291 39.7295 50.1291 40.2499 50.0455C40.5101 50.0455 40.6836 50.0455 40.9438 49.9618C41.0306 49.9618 41.2909 49.8783 41.3776 49.8783C41.4643 49.8783 41.4643 49.8783 41.4643 49.8783C41.8112 49.8783 41.7245 50.2963 41.7245 50.4635Z" fill="#333333"/>
<path d="M42.939 47.6203C42.8521 47.5368 42.7654 47.5368 42.6787 47.5368C43.4593 45.6135 43.3726 43.5228 42.3317 41.7667C42.0715 41.3487 41.6378 40.5124 40.4234 40.1779C40.1631 40.0943 39.9897 40.0943 39.7295 40.0943C39.1222 40.0943 38.6017 40.2616 38.0814 40.596C37.8211 40.7633 37.6476 40.9305 37.5609 41.0141C37.2139 41.3487 36.8669 41.5995 36.6067 41.934C35.9128 42.5194 35.132 43.272 34.3514 44.0246L34.2647 43.941C33.5707 43.1048 32.7033 42.603 31.6624 42.3521C31.9226 41.934 32.096 41.5159 32.1828 41.1814C32.8767 39.0908 32.0961 37.0839 30.1877 36.0803C30.0143 35.9968 29.8407 35.9131 29.6673 35.8295C29.6673 35.4949 29.6673 35.1604 29.4938 34.826C29.1468 33.9061 28.3661 33.3208 27.3252 33.0699C27.0649 32.9863 26.8048 32.9863 26.5445 32.9863C26.2843 32.9863 26.024 32.9863 25.7638 33.0699H25.6771C24.6362 33.3208 23.8555 33.9061 23.5085 34.7424C23.335 35.0769 23.335 35.4114 23.335 35.8295C23.1615 35.9131 22.9881 35.9968 22.8145 36.0803C20.9062 37.1674 20.1255 39.0908 20.7328 41.265C20.8195 41.6832 20.993 42.0176 21.2531 42.4357C20.2123 42.6866 19.3449 43.272 18.6509 44.0246C18.6509 44.0246 18.6509 44.1082 18.5642 44.1082C17.6967 43.3556 16.916 42.6866 16.3088 42.0176C15.9619 41.6832 15.6149 41.4322 15.2679 41.0978C15.1812 41.0141 15.0077 40.8468 14.7474 40.6796C14.3138 40.3451 13.7066 40.1779 13.0993 40.1779C12.8391 40.1779 12.6657 40.1779 12.4054 40.2616C11.2778 40.5124 10.7573 41.4322 10.4971 41.8504C9.45617 43.6065 9.36946 45.7807 10.1501 47.6203C10.0634 47.6203 9.97656 47.704 9.88985 47.704C8.84896 48.2894 8.41529 49.2929 8.502 50.7145C8.502 51.1326 8.58871 51.5507 8.76225 51.8851C9.0225 52.7215 9.54289 53.4741 10.1501 54.0594C10.3236 54.2266 10.4971 54.3939 10.6706 54.4775C10.3236 55.2302 10.3236 56.0664 10.7573 56.819C10.844 56.9862 11.0176 57.237 11.1043 57.4043C11.3645 57.7389 11.7115 58.0734 12.0585 58.4078C12.8391 58.9932 13.7933 59.3277 14.7474 59.495C14.8343 59.495 14.921 59.495 14.921 59.495C15.0944 59.913 15.3547 60.2476 15.7016 60.4984C16.3088 61.0001 17.0896 61.3346 17.6967 61.4183C17.6967 62.0037 17.8702 62.589 18.2172 63.0908C19.0847 64.1778 20.299 64.9304 21.5134 65.0977C21.6869 65.4322 21.8604 65.6831 22.1206 65.934C24.4626 68.1081 25.3301 68.4427 26.2843 68.4427C27.2385 68.4427 28.1059 68.1081 30.4479 65.934C30.7082 65.6831 30.8816 65.4322 31.0552 65.0977C32.2696 64.8469 33.4839 64.1778 34.3514 63.0908C34.6983 62.589 34.9586 62.0037 34.8719 61.4183C35.5658 61.251 36.2597 61.0001 36.8669 60.4984C37.2139 60.2476 37.4741 59.913 37.6476 59.495C37.7344 59.495 37.8211 59.495 37.8211 59.495C38.7753 59.4113 39.7295 58.9932 40.5101 58.4078C40.8571 58.1569 41.204 57.8224 41.4643 57.4043C41.6378 57.237 41.7245 56.9862 41.8112 56.819C42.245 55.9827 42.245 55.1465 41.8979 54.4775C42.0715 54.3103 42.245 54.2266 42.4185 54.0594C43.0257 53.4741 43.5462 52.7215 43.8063 51.8851C43.8931 51.4671 43.9798 51.1326 44.0666 50.7145C44.4135 49.2092 43.9798 48.2057 42.939 47.6203ZM25.9373 35.4949C26.024 35.4114 26.1976 35.4114 26.2843 35.3277C26.371 35.3277 26.371 35.3277 26.4578 35.3277C26.5445 35.3277 26.5445 35.3277 26.6312 35.3277C26.7179 35.3277 26.8915 35.4114 26.9782 35.4949C27.0649 35.5786 27.0649 35.5786 27.0649 35.6622L26.4578 36.582L25.9373 35.6622C25.8506 35.5786 25.9373 35.4949 25.9373 35.4949ZM24.1157 38.0873C24.2892 38.0036 24.4626 37.9201 24.6362 37.8364C24.8096 37.7528 24.8964 37.7528 24.8964 37.7528L24.9831 37.8364L26.4578 40.0106L27.9324 37.8364L28.0191 37.7528C28.0191 37.7528 28.1059 37.7528 28.2793 37.8364C28.4529 37.9201 28.6263 37.9201 28.7998 38.0873C29.4071 38.4218 30.101 39.0908 29.6673 40.3451C29.4938 40.8468 29.1468 41.5159 28.5396 42.2684C28.5396 42.2684 28.5396 42.2684 28.4529 42.3521H27.8457H26.2843H24.7229H24.1157C24.1157 42.3521 24.1157 42.3521 24.029 42.2684C23.4217 41.5159 23.0748 40.8468 22.9014 40.3451C22.8145 39.0908 23.5085 38.4218 24.1157 38.0873ZM41.7245 50.4635C41.7245 50.6308 41.6378 50.8817 41.6378 51.0489C41.4643 51.4671 41.204 51.8851 40.9438 52.1361C40.4234 52.6378 39.6426 52.9723 38.862 52.9723C37.9945 53.1395 37.3006 53.1395 36.52 53.1395H36.4333C36.3464 53.1395 36.2597 53.1395 36.173 53.1395C36.0862 53.1395 35.9128 53.1395 35.9128 53.2232C35.826 53.3904 35.9995 53.6413 36.0862 53.7249C36.4331 53.9758 36.9536 54.1431 37.3006 54.3939C38.0814 54.7285 38.9487 55.0629 39.6426 55.481C39.7295 55.5647 39.8162 55.5646 39.7295 55.6482C39.6426 55.7319 39.6426 55.8155 39.5559 55.9827C39.3825 56.1501 39.2957 56.3173 39.1222 56.4845C38.6885 56.819 38.2548 56.9863 37.7344 57.0698C37.6476 57.0698 37.4741 57.0698 37.3873 57.0698C36.6934 57.0698 35.9995 56.819 35.3055 56.4845C34.8719 56.3173 34.4381 56.0664 34.0911 55.8991C34.0044 55.8155 33.7442 55.6482 33.5707 55.6482C33.4839 55.6482 33.4839 55.6482 33.3972 55.7319C33.3105 55.8991 33.3105 56.1501 33.4839 56.3173C33.7442 56.7353 34.1778 57.1535 34.5249 57.488C34.8719 57.9061 35.132 58.2406 35.4791 58.5751C35.0453 58.9096 34.3514 59.0768 33.7442 59.0768C33.6574 59.0768 33.4839 59.0768 33.3972 59.0768C32.7033 58.9932 32.0961 58.5751 31.7491 58.0734C31.5755 57.8224 31.4888 57.5716 31.3154 57.3207C31.1419 56.9862 30.7949 56.819 30.4479 56.819C30.2744 56.819 30.101 56.9026 29.9274 56.9862C29.2335 57.488 28.5396 58.2406 28.5396 58.2406C29.1468 58.7423 31.2286 60.7493 32.5297 61.5855C31.9226 62.3382 31.2286 62.6726 30.5347 62.6726C29.9274 62.6726 29.2335 62.3382 28.5396 61.7528C28.2793 61.5018 28.0191 61.251 27.8457 61.251C27.759 61.251 27.759 61.251 27.6721 61.3346C27.4987 61.5018 27.6721 62.1709 27.759 62.3382C27.9324 62.7562 28.7998 64.0106 28.8866 64.0942C28.8866 64.0942 26.8915 65.934 26.4578 65.934C26.024 65.934 24.029 64.0942 24.029 64.0942C24.1157 63.927 24.9831 62.6726 25.1567 62.3382C25.2434 62.1709 25.4168 61.5018 25.2434 61.3346C25.1567 61.251 25.1567 61.251 25.0698 61.251C24.8096 61.251 24.6362 61.5018 24.3759 61.7528C23.682 62.3382 23.0748 62.6726 22.3809 62.6726C21.6869 62.6726 20.993 62.2545 20.3858 61.5855C21.6869 60.6656 23.7687 58.7423 24.3759 58.2406C24.3759 58.2406 23.5953 57.488 22.9881 56.9862C22.8145 56.9026 22.6411 56.819 22.4676 56.819C22.1206 56.819 21.7736 56.9862 21.6002 57.3207C21.4267 57.5716 21.34 57.8224 21.1664 58.0734C20.8195 58.5751 20.2123 58.9932 19.605 58.9932C19.5183 58.9932 19.3449 58.9932 19.2581 58.9932C18.6509 58.9932 17.9569 58.826 17.5233 58.4914C17.8702 58.1569 18.2172 57.7389 18.4774 57.4043C18.8244 56.9862 19.1714 56.6518 19.5183 56.2336C19.605 56.0664 19.6919 55.8154 19.605 55.6482C19.605 55.5646 19.5183 55.5647 19.4316 55.5647C19.2581 55.5647 19.0847 55.7319 18.9111 55.8155C18.4774 55.9827 18.0436 56.2336 17.61 56.4008C16.916 56.7353 16.3088 56.9862 15.5282 56.9862C15.4414 56.9862 15.2679 56.9862 15.1812 56.9862C14.6607 56.9026 14.2271 56.7353 13.7933 56.4008C13.6198 56.2336 13.4463 56.0664 13.3596 55.8991C13.2729 55.8155 13.1861 55.7319 13.1861 55.5647C13.0993 55.481 13.1861 55.3974 13.2729 55.3974C13.9668 54.9792 14.8343 54.6448 15.6149 54.3103C16.0486 54.1431 16.4824 53.9758 16.916 53.6413C17.0896 53.5577 17.263 53.3067 17.0896 53.1395C17.0028 53.1395 16.916 53.1395 16.7425 53.1395C16.6558 53.1395 16.4824 53.1395 16.4824 53.1395H16.3955C15.6149 53.1395 14.921 53.1395 14.1402 53.0559C13.3596 53.0559 12.579 52.7215 12.0585 52.2197C11.7115 51.8851 11.4512 51.5507 11.3645 51.1326C11.2778 50.9654 11.2778 50.7145 11.191 50.5472C11.191 50.38 11.1043 49.9618 11.2778 49.8783H11.3645C11.538 49.8783 11.7115 49.8783 11.7982 49.9618C12.0585 49.9618 12.2319 49.9618 12.4921 50.0455C13.0126 50.0455 13.5331 50.1291 14.0535 50.2127C14.574 50.2127 15.0944 50.2963 15.6149 50.2963H15.7016C15.8752 50.2963 15.9619 50.2963 16.1354 50.1291C16.3088 49.9618 16.3088 49.7946 16.1354 49.711C15.3547 49.2929 14.574 48.9584 13.8801 48.373C12.4054 47.1186 11.7982 44.7771 12.8391 43.1047C12.8391 43.0211 13.0126 42.6866 13.0993 42.6866C13.0993 42.6866 13.0993 42.6866 13.1861 42.7703C13.2729 42.8538 13.3596 42.9375 13.4463 43.0211C13.7933 43.272 14.1402 43.6065 14.4005 43.8574C16.2221 45.5298 18.0436 47.1186 19.8653 48.7911C19.952 48.8747 20.1255 49.0419 20.2123 49.1256C19.4316 49.7946 19.3449 51.0489 19.8653 51.8851C20.2123 52.4705 20.9062 52.7215 21.6002 52.7215C21.8604 52.7215 22.1206 52.7215 22.3809 52.5542C24.1157 51.9688 24.2025 49.4601 22.5543 48.7911C22.2941 48.7075 22.1206 48.6239 21.8604 48.6239C21.6869 48.6239 21.5134 48.6239 21.6002 48.4567C21.7736 48.0385 22.1206 47.6203 22.3809 47.2023C22.0339 47.1186 21.6869 47.0351 21.2531 47.0351H21.1664C20.993 47.0351 20.8195 47.0351 20.646 47.1186C20.5592 47.1186 20.3858 47.2023 20.299 47.2859C20.2123 47.3695 20.1255 47.4531 20.0388 47.4531C19.7786 46.0315 20.9062 44.7771 22.3809 44.7771C22.4676 44.7771 22.5543 44.7771 22.6411 44.7771C22.9014 44.7771 23.2483 44.8608 23.5085 44.8608C23.9423 44.8608 24.2892 44.9444 24.7229 45.0281C24.8096 45.0281 24.8964 45.0281 25.0698 45.0281C25.3301 45.0281 25.6771 45.1116 25.9373 45.1116C25.4168 45.9479 25.3301 47.0351 25.7638 47.9549C25.9373 48.373 26.1976 48.7911 26.371 49.2092C26.5445 48.7911 26.8048 48.373 26.9782 47.9549C27.412 47.0351 27.412 45.9479 26.8048 45.1116C27.0649 45.1116 27.412 45.0281 27.6721 45.0281C27.759 45.0281 27.9324 45.0281 28.0191 45.0281C28.4529 45.0281 28.7998 44.9444 29.2335 44.8608C29.4938 44.8608 29.8407 44.7771 30.101 44.7771C30.1877 44.7771 30.2744 44.7771 30.3612 44.7771C31.8358 44.7771 32.9635 46.0315 32.7033 47.4531C32.6166 47.4531 32.5297 47.2859 32.443 47.2859C32.3563 47.2023 32.1828 47.2023 32.096 47.1186C31.9226 47.0351 31.7491 47.0351 31.5755 47.0351H31.4888C31.1419 47.0351 30.7082 47.1186 30.3612 47.2023C30.6214 47.6203 30.9685 48.0385 31.1419 48.4567C31.2286 48.7075 31.1419 48.6239 30.8816 48.6239C30.6214 48.6239 30.4479 48.7075 30.1877 48.7911C28.5396 49.4601 28.6263 52.0525 30.3612 52.5542C30.6214 52.6378 30.8816 52.7215 31.1419 52.7215C31.8358 52.7215 32.443 52.4705 32.8767 51.8851C33.3972 51.0489 33.3105 49.7946 32.5297 49.1256C32.6166 49.0419 32.79 48.8747 32.8767 48.7911C34.6983 47.1186 36.52 45.4462 38.3415 43.8574C38.6885 43.6065 39.0355 43.272 39.2957 43.0211C39.3825 42.9375 39.4692 42.8538 39.5559 42.7703C39.5559 42.7703 39.5559 42.6866 39.6426 42.6866C39.7295 42.6866 39.9029 43.0211 39.9029 43.1047C40.9438 44.7771 40.3367 47.1186 38.862 48.373C38.1681 48.9584 37.3873 49.2092 36.6067 49.711C36.4333 49.7946 36.52 49.9618 36.6067 50.1291C36.6934 50.2127 36.8669 50.2963 37.0404 50.2963H37.1272C37.6476 50.2963 38.1681 50.2127 38.6885 50.2127C39.209 50.1291 39.7295 50.1291 40.2499 50.0455C40.5101 50.0455 40.6836 50.0455 40.9438 49.9618C41.0306 49.9618 41.2909 49.8783 41.3776 49.8783C41.4643 49.8783 41.4643 49.8783 41.4643 49.8783C41.8112 49.8783 41.7245 50.2963 41.7245 50.4635Z" fill="#333333"/>
<path d="M41.7224 75.369H11.1889C10.8042 75.369 10.4866 75.031 10.4866 74.714V73.0417C10.4866 72.7248 10.8042 72.3867 11.1889 72.3867H41.7224C42.107 72.3867 42.4247 72.7248 42.4247 73.0417V74.714C42.4247 75.031 42.107 75.369 41.7224 75.369Z" fill="#333333" stroke="#333333"/>
<path d="M39.5579 24H13.726C13.385 24 13.1035 23.7419 13.1035 23.5C13.1035 23.2581 13.385 23 13.726 23H39.4811C39.822 23 40.1035 23.2581 40.1035 23.5C40.1035 23.7833 39.8514 24 39.5579 24Z" fill="#333333" stroke="#333333"/>
<path d="M37.4947 29H14.7123C14.3788 29 14.1035 28.7419 14.1035 28.5C14.1035 28.2581 14.3788 28 14.7123 28H37.4947C37.8282 28 38.1035 28.2581 38.1035 28.5C38.1035 28.7619 37.8804 29 37.4947 29Z" fill="#333333" stroke="#333333"/>
<circle cx="53.6035" cy="15.5" r="12.35" fill="white" stroke="#333333" stroke-width="2.3"/>
<path d="M49.5938 19H47.7783V13.2207L45.9951 13.7417V12.3667L49.4272 11.1797H49.5938V19ZM57.2261 13.269C57.2261 13.6486 57.1312 13.9834 56.9414 14.2734C56.7552 14.5635 56.4974 14.7962 56.168 14.9717C56.5404 15.1543 56.8358 15.4049 57.0542 15.7236C57.2726 16.0387 57.3818 16.4129 57.3818 16.8462C57.3818 17.5444 57.1401 18.0959 56.6567 18.5005C56.1769 18.9051 55.5145 19.1074 54.6694 19.1074C53.8208 19.1074 53.1512 18.9051 52.6606 18.5005C52.1701 18.0923 51.9248 17.5409 51.9248 16.8462C51.9248 16.4272 52.0322 16.0566 52.2471 15.7344C52.4619 15.4121 52.7663 15.1579 53.1602 14.9717C52.8271 14.7962 52.5658 14.5635 52.376 14.2734C52.1862 13.9834 52.0913 13.6486 52.0913 13.269C52.0913 12.5887 52.3223 12.0516 52.7842 11.6577C53.2461 11.2638 53.8691 11.0669 54.6533 11.0669C55.4447 11.0669 56.0713 11.2638 56.5332 11.6577C56.9951 12.0516 57.2261 12.5887 57.2261 13.269ZM55.5664 16.7012C55.5664 16.3789 55.4823 16.1318 55.314 15.96C55.1493 15.7845 54.9308 15.6968 54.6587 15.6968C54.3866 15.6968 54.1663 15.7845 53.998 15.96C53.8298 16.1318 53.7456 16.3789 53.7456 16.7012C53.7456 17.0127 53.8298 17.2598 53.998 17.4424C54.1699 17.6214 54.3937 17.7109 54.6694 17.7109C54.938 17.7109 55.1546 17.6214 55.3193 17.4424C55.484 17.2633 55.5664 17.0163 55.5664 16.7012ZM54.6533 12.4634C54.4098 12.4634 54.2236 12.5439 54.0947 12.7051C53.9694 12.8626 53.9067 13.0828 53.9067 13.3657C53.9067 13.645 53.9712 13.8706 54.1001 14.0425C54.229 14.2144 54.4188 14.3003 54.6694 14.3003C54.9165 14.3003 55.1009 14.2144 55.2227 14.0425C55.348 13.8706 55.4106 13.645 55.4106 13.3657C55.4106 13.0864 55.3462 12.8662 55.2173 12.7051C55.092 12.5439 54.904 12.4634 54.6533 12.4634ZM61.6143 14.5635H63.4458V16.1157H61.6143V18.2158H59.9224V16.1157H58.0854V14.5635H59.9224V12.5225H61.6143V14.5635Z" fill="#333333"/>
</svg>
