<svg width="78" height="85" viewBox="0 0 78 85" fill="none" xmlns="http://www.w3.org/2000/svg">
<path d="M72.6475 20.5749C73.4759 20.5749 74.1475 21.2464 74.1475 22.0749L74.1475 80.0737C74.1475 80.9022 73.4759 81.5737 72.6475 81.5737L3.49993 81.5737C2.6715 81.5737 1.99992 80.9022 1.99992 80.0737L1.99993 28.9233C1.99993 28.0949 2.6715 27.4233 3.49993 27.4233L54.6504 27.4233C55.4788 27.4233 56.134 26.7432 56.3187 25.9356C57.0041 22.9387 59.706 20.5749 62.9988 20.5749L72.6475 20.5749Z" stroke="#333333" stroke-width="2.3" stroke-miterlimit="10" stroke-linecap="round" stroke-linejoin="round"/>
<path d="M29.075 27.4221L11.0781 27.4221C11.0781 26.2031 11.0766 24.5568 11.0753 22.9998C11.074 21.343 12.4144 20 14.0712 20C17.6082 20 22.4116 20 26.0754 20C27.7323 20 29.0751 21.3432 29.0751 23L29.075 27.4221Z" stroke="#333333" stroke-width="2.3" stroke-miterlimit="10" stroke-linecap="round" stroke-linejoin="round"/>
<path d="M51.575 27.4219L33.5781 27.4219C33.5781 26.2028 33.5766 24.5566 33.5753 22.9996C33.574 21.3427 34.9144 19.9998 36.5712 19.9998C40.1082 19.9998 44.9116 19.9998 48.5754 19.9998C50.2323 19.9998 51.5751 21.3429 51.5751 22.9998L51.575 27.4219Z" stroke="#333333" stroke-width="2.3" stroke-miterlimit="10" stroke-linecap="round" stroke-linejoin="round"/>
<path d="M22.041 44.4672C18.8743 44.4672 16.3074 41.9001 16.3074 38.7336C16.3074 35.567 18.8743 33 22.041 33C25.2075 33 27.7744 35.567 27.7744 38.7336C27.7744 41.9001 25.2075 44.4672 22.041 44.4672Z" fill="#FFED00" stroke="#333333" stroke-width="2.3" stroke-miterlimit="10" stroke-linecap="round" stroke-linejoin="round"/>
<path d="M27.9335 54.6601V59.9158H16.3072V54.6601V59.9158H10.5736V51.634C10.5736 48.4487 13.1218 45.9004 16.3072 45.9004C17.1035 46.6967 18.0591 47.3338 19.0147 47.6524C19.9703 48.1302 21.0851 48.2895 22.1999 48.2895C23.3149 48.2895 24.2705 48.1302 25.3853 47.6524C26.3409 47.1745 27.2965 46.6967 28.0928 45.9004C31.2782 45.9004 33.8264 48.4487 33.8264 51.634V59.9158H28.0928L27.9335 54.6601Z" fill="#FFED00" stroke="#333333" stroke-width="2.3" stroke-miterlimit="10" stroke-linecap="round" stroke-linejoin="round"/>
</svg>
