<svg width="20" height="29" viewBox="0 0 20 29" fill="none" xmlns="http://www.w3.org/2000/svg">
<path d="M2.27474 8.2473C1.97877 9.40432 1.98122 10.5725 2.01574 11.75C2.1391 15.9585 6.5246 23.0091 10.0979 27.708C10.2131 27.8596 10.4368 27.8653 10.559 27.7193C13.3752 24.3557 18.5701 16.8001 18.5701 11.2739C18.7094 10.0877 18.5912 8.88554 18.2236 7.74924C17.856 6.61293 17.2477 5.56927 16.4401 4.68941C15.6326 3.80955 14.6448 3.11421 13.5441 2.65078C12.4434 2.18736 11.2557 1.96677 10.062 2.00405C8.86827 2.04133 7.69666 2.3356 6.62702 2.8668C5.55738 3.39799 4.61488 4.15362 3.86379 5.08215C3.1127 6.01068 2.5707 7.09027 2.27474 8.2473Z" fill="#FFED00" stroke="#333333" stroke-width="2.3"/>
<circle cx="10.3209" cy="10.3055" r="3.61111" fill="white" stroke="#333333" stroke-width="2.3"/>
</svg>
