<svg width="106" height="87" viewBox="0 0 106 87" fill="none" xmlns="http://www.w3.org/2000/svg">
<path d="M8 24V24C8 21.2386 10.2386 19 13 19H93C95.7614 19 98 21.2386 98 24V74C98 76.7614 95.7614 79 93 79V79" stroke="#333333" stroke-width="2.3" stroke-linecap="round"/>
<rect x="1.15" y="28.15" width="87.7" height="57.7" rx="3.85" stroke="#333333" stroke-width="2.3"/>
<path d="M26.4672 52.4672C23.3005 52.4672 20.7336 49.9001 20.7336 46.7336C20.7336 43.567 23.3005 41 26.4672 41C29.6338 41 32.2007 43.567 32.2007 46.7336C32.2007 49.9001 29.6338 52.4672 26.4672 52.4672Z" fill="#FFED00" stroke="#333333" stroke-width="2.3" stroke-miterlimit="10" stroke-linecap="round" stroke-linejoin="round"/>
<path d="M32.3601 62.6604V67.916H20.7337V62.6604V67.916H15.0001V59.6342C15.0001 56.449 17.5483 53.9006 20.7337 53.9006C21.53 54.6969 22.4856 55.334 23.4412 55.6527C24.3968 56.1304 25.5116 56.2897 26.6265 56.2897C27.7414 56.2897 28.697 56.1304 29.8119 55.6527C30.7674 55.1747 31.723 54.6969 32.5193 53.9006C35.7047 53.9006 38.2529 56.449 38.2529 59.6342V67.916H32.5193L32.3601 62.6604Z" fill="#FFED00" stroke="#333333" stroke-width="2.3" stroke-miterlimit="10" stroke-linecap="round" stroke-linejoin="round"/>
<rect x="8.15" y="35.15" width="37.7" height="37.7" rx="1.85" stroke="#333333" stroke-width="2.3"/>
<rect x="51" y="39" width="31" height="4" rx="2" fill="#333333"/>
<path d="M52.2065 48H77.0001" stroke="#333333" stroke-width="2.3" stroke-linecap="round"/>
<path d="M52.1616 53H77" stroke="#333333" stroke-width="2.3" stroke-linecap="round"/>
<path d="M52.1611 59H76.9998" stroke="#333333" stroke-width="2.3" stroke-linecap="round"/>
<path d="M68.5896 64.7694L66.5669 66.5898C65.7152 67.3563 65.6804 68.6804 66.4906 69.4906L77.9081 80.9081C78.7552 81.7552 80.1519 81.6726 80.8933 80.7316L104.232 51.1088C104.928 50.2266 104.76 48.945 103.861 48.2711L101.04 46.1551C100.18 45.5102 98.9643 45.6603 98.287 46.495L79.3982 69.7767C78.6506 70.6981 77.2698 70.7698 76.4308 69.9308L71.3417 64.8417C70.5896 64.0896 69.3803 64.0578 68.5896 64.7694Z" fill="#FFED00" stroke="#333333" stroke-width="2.3" stroke-linecap="round"/>
</svg>
