<svg width="105" height="87" viewBox="0 0 105 87" fill="none" xmlns="http://www.w3.org/2000/svg">
<path d="M1.15 20C1.15 18.9783 1.97827 18.15 3 18.15H36.7574C37.248 18.15 37.7186 18.3449 38.0655 18.6919L53.3081 33.9345C53.6551 34.2814 53.85 34.752 53.85 35.2426V84C53.85 85.0217 53.0217 85.85 52 85.85H3C1.97827 85.85 1.15 85.0217 1.15 84V20Z" stroke="#333333" stroke-width="2.3"/>
<path d="M37 18V31.5C37 33.1569 38.3431 34.5 40 34.5H53.5" stroke="#333333" stroke-width="2.3"/>
<rect x="9" y="37" width="15" height="15" fill="#FFED00"/>
<path d="M10 59H20" stroke="#333333" stroke-width="2.3" stroke-linecap="round"/>
<path d="M10 65H30" stroke="#333333" stroke-width="2.3" stroke-linecap="round"/>
<path d="M10 71H30" stroke="#333333" stroke-width="2.3" stroke-linecap="round"/>
<path d="M10 77H30" stroke="#333333" stroke-width="2.3" stroke-linecap="round"/>
<path d="M43.0534 58.2546L42.8419 58.3339C41.7235 58.7533 40.9604 59.7963 40.8993 60.9893L40.0788 76.989C40.0293 77.9531 40.4469 78.8822 41.2007 79.4852L41.7074 79.8906C42.2215 80.3018 42.8566 80.5326 43.5148 80.5472L64.1333 81.0054C64.6995 81.018 65.2577 80.87 65.7434 80.5786L66.0435 80.3986C66.9471 79.8564 67.4995 78.8817 67.5025 77.8279C67.5202 71.6232 67.6357 61.482 68 60.0247C68.2461 59.0402 66.9905 58.3838 65.561 57.9857C64.1214 57.5848 62.9445 56.4152 62.8699 54.9227L62.5172 47.8682C62.5058 47.6399 62.4712 47.4146 62.3978 47.1981C61.5825 44.7919 58.849 40.6426 53.5 41.0247C48.2128 41.4023 45.7781 45.0782 45.1018 47.1709C45.0264 47.4043 45 47.6487 45 47.894V55.4457C45 56.6962 44.2243 57.8155 43.0534 58.2546Z" fill="white"/>
<rect x="40" y="74.0247" width="28" height="7" fill="#FFED00"/>
<rect x="40.15" y="58.1747" width="27.7" height="22.7" rx="1.85" stroke="#333333" stroke-width="2.3"/>
<path d="M40 74.0247H68" stroke="#333333" stroke-width="2.3"/>
<path d="M48.6245 67.946C48.6245 67.6703 48.526 67.4555 48.3291 67.3015C48.1357 67.1475 47.7938 66.9882 47.3032 66.8235C46.8127 66.6588 46.4116 66.4994 46.1001 66.3455C45.0868 65.8477 44.5801 65.1638 44.5801 64.2937C44.5801 63.8604 44.7054 63.4791 44.9561 63.1497C45.2103 62.8167 45.5684 62.5588 46.0303 62.3762C46.4922 62.19 47.0114 62.0969 47.5879 62.0969C48.1501 62.0969 48.6532 62.1972 49.0972 62.3977C49.5448 62.5982 49.8921 62.8847 50.1392 63.2571C50.3862 63.6259 50.5098 64.0484 50.5098 64.5247H48.6299C48.6299 64.206 48.5314 63.9589 48.3345 63.7834C48.1411 63.608 47.8779 63.5203 47.5449 63.5203C47.2083 63.5203 46.9416 63.5955 46.7446 63.7458C46.5513 63.8927 46.4546 64.0806 46.4546 64.3098C46.4546 64.5103 46.562 64.693 46.7769 64.8577C46.9917 65.0188 47.3695 65.1871 47.9102 65.3625C48.4508 65.5344 48.8949 65.7206 49.2422 65.9211C50.0872 66.4081 50.5098 67.0795 50.5098 67.9353C50.5098 68.6192 50.252 69.1563 49.7363 69.5466C49.2207 69.9369 48.5135 70.1321 47.6147 70.1321C46.981 70.1321 46.4062 70.0193 45.8906 69.7937C45.3786 69.5645 44.9919 69.253 44.7305 68.8591C44.4727 68.4617 44.3438 68.0051 44.3438 67.4895H46.2344C46.2344 67.9084 46.3418 68.2182 46.5566 68.4187C46.7751 68.6156 47.1278 68.7141 47.6147 68.7141C47.9263 68.7141 48.1715 68.6479 48.3506 68.5154C48.5332 68.3793 48.6245 68.1895 48.6245 67.946ZM55.5103 67.946C55.5103 67.6703 55.4118 67.4555 55.2148 67.3015C55.0215 67.1475 54.6795 66.9882 54.189 66.8235C53.6984 66.6588 53.2974 66.4994 52.9858 66.3455C51.9725 65.8477 51.4658 65.1638 51.4658 64.2937C51.4658 63.8604 51.5911 63.4791 51.8418 63.1497C52.096 62.8167 52.4541 62.5588 52.916 62.3762C53.3779 62.19 53.8971 62.0969 54.4736 62.0969C55.0358 62.0969 55.5389 62.1972 55.9829 62.3977C56.4305 62.5982 56.7778 62.8847 57.0249 63.2571C57.272 63.6259 57.3955 64.0484 57.3955 64.5247H55.5156C55.5156 64.206 55.4172 63.9589 55.2202 63.7834C55.0269 63.608 54.7637 63.5203 54.4307 63.5203C54.0941 63.5203 53.8273 63.5955 53.6304 63.7458C53.437 63.8927 53.3403 64.0806 53.3403 64.3098C53.3403 64.5103 53.4478 64.693 53.6626 64.8577C53.8774 65.0188 54.2552 65.1871 54.7959 65.3625C55.3366 65.5344 55.7806 65.7206 56.1279 65.9211C56.973 66.4081 57.3955 67.0795 57.3955 67.9353C57.3955 68.6192 57.1377 69.1563 56.6221 69.5466C56.1064 69.9369 55.3993 70.1321 54.5005 70.1321C53.8667 70.1321 53.292 70.0193 52.7764 69.7937C52.2643 69.5645 51.8776 69.253 51.6162 68.8591C51.3584 68.4617 51.2295 68.0051 51.2295 67.4895H53.1201C53.1201 67.9084 53.2275 68.2182 53.4424 68.4187C53.6608 68.6156 54.0135 68.7141 54.5005 68.7141C54.812 68.7141 55.0573 68.6479 55.2363 68.5154C55.4189 68.3793 55.5103 68.1895 55.5103 67.946ZM60.2476 68.5745H63.5293V70.0247H58.3623V62.2043H60.2476V68.5745Z" fill="#333333"/>
<path d="M45 59.0247L45 49.7486C45 48.603 45.2328 47.4686 45.6851 46.4101C46.1374 45.3517 46.8003 44.39 47.636 43.5799C48.4718 42.7698 49.4639 42.1272 50.5558 41.6887C51.6478 41.2503 52.8181 41.0247 54 41.0247C55.1819 41.0247 56.3522 41.2503 57.4441 41.6887C58.5361 42.1272 59.5282 42.7698 60.364 43.5799C61.1997 44.39 61.8626 45.3517 62.3149 46.4101C62.7672 47.4686 63 48.603 63 49.7486V59.0247" stroke="#333333" stroke-width="2.3"/>
<path d="M50 57.0247L50 49.9647C50 49.4473 50.1035 48.935 50.3045 48.4569C50.5055 47.9789 50.8001 47.5445 51.1716 47.1787C51.543 46.8128 51.984 46.5226 52.4693 46.3246C52.9546 46.1266 53.4747 46.0247 54 46.0247C54.5253 46.0247 55.0454 46.1266 55.5307 46.3246C56.016 46.5226 56.457 46.8128 56.8284 47.1787C57.1999 47.5445 57.4945 47.9789 57.6955 48.4569C57.8965 48.935 58 49.4473 58 49.9647V57.0247" stroke="#333333" stroke-width="2.3"/>
</svg>
